<svg width="288" height="27" viewBox="0 0 288 27" fill="none" xmlns="http://www.w3.org/2000/svg">
<g clip-path="url(#clip0_273_2847)">
<g clip-path="url(#clip1_273_2847)">
<g clip-path="url(#clip2_273_2847)">
<path d="M42 0.375H0V26.625H42V0.375Z" fill="white"/>
<path fill-rule="evenodd" clip-rule="evenodd" d="M11.8641 17.49H9.97406C9.86906 17.49 9.71156 17.595 9.71156 17.7L8.97656 22.4775C8.97656 22.5825 9.02906 22.635 9.13406 22.635H10.0266C10.1316 22.635 10.2891 22.53 10.2891 22.425L10.4991 21.1125C10.4991 21.0075 10.6041 20.9025 10.7616 20.9025H11.3391C12.5466 20.9025 13.2816 20.325 13.4391 19.1175C13.5441 18.5925 13.4391 18.1725 13.1766 17.91C12.9666 17.6475 12.4941 17.49 11.8641 17.49ZM12.0741 19.275C11.9691 19.9575 11.4441 19.9575 10.9716 19.9575H10.7091L10.9191 18.6975C10.9191 18.645 10.9716 18.54 11.0766 18.54H11.1816C11.4966 18.54 11.8116 18.54 12.0216 18.75C12.1266 18.855 12.1266 19.0125 12.0741 19.275ZM17.4816 19.2225H16.5891C16.5366 19.2225 16.4316 19.275 16.4316 19.38L16.3791 19.6425L16.3266 19.5375C16.1166 19.275 15.6966 19.17 15.2766 19.17C14.2791 19.17 13.4391 19.905 13.2816 20.955C13.1766 21.48 13.3341 22.005 13.5966 22.32C13.8591 22.635 14.2791 22.7925 14.6991 22.7925C15.4866 22.7925 15.9591 22.2675 15.9591 22.2675L15.9066 22.53C15.9066 22.635 15.9591 22.6875 16.0641 22.6875H16.8516C16.9566 22.6875 17.0616 22.5825 17.1141 22.4775L17.5866 19.4325C17.6391 19.3275 17.5341 19.2225 17.4816 19.2225ZM16.2216 20.955C16.1166 21.48 15.7491 21.795 15.2241 21.795C14.9616 21.795 14.7516 21.69 14.6466 21.5325C14.4891 21.375 14.4891 21.165 14.4891 20.9025C14.5941 20.3775 14.9616 20.0625 15.4866 20.0625C15.7491 20.0625 15.9591 20.1675 16.0641 20.325C16.2216 20.4825 16.2741 20.745 16.2216 20.955ZM21.3141 19.2225H22.2066C22.3116 19.2225 22.4166 19.38 22.3116 19.485L19.3191 23.79C19.2666 23.8425 19.2141 23.895 19.1091 23.895H18.2166C18.1116 23.895 18.0066 23.7375 18.1116 23.6325L19.0566 22.32L18.0591 19.4325C18.0066 19.3275 18.1116 19.2225 18.2166 19.2225H19.1091C19.2141 19.2225 19.3191 19.275 19.3716 19.4325L19.8966 21.165L21.1566 19.3275C21.1566 19.275 21.2616 19.2225 21.3141 19.2225Z" fill="#253B80"/>
<path fill-rule="evenodd" clip-rule="evenodd" d="M31.08 22.53L31.8675 17.6475C31.8675 17.595 31.92 17.49 32.025 17.49H32.865C32.97 17.49 33.0225 17.595 33.0225 17.6475L32.2875 22.425C32.2875 22.53 32.1825 22.635 32.025 22.635H31.2375C31.1325 22.6875 31.0275 22.5825 31.08 22.53ZM25.2 17.49H23.31C23.205 17.49 23.1 17.595 23.0475 17.7L22.3125 22.4775C22.3125 22.5825 22.365 22.635 22.47 22.635H23.415C23.52 22.635 23.5725 22.5825 23.5725 22.4775L23.7825 21.1125C23.7825 21.0075 23.8875 20.9025 24.045 20.9025H24.675C25.8825 20.9025 26.6175 20.325 26.775 19.1175C26.88 18.5925 26.775 18.1725 26.5125 17.91C26.3025 17.6475 25.83 17.49 25.2 17.49ZM25.41 19.275C25.305 19.9575 24.78 19.9575 24.3075 19.9575H24.045L24.255 18.6975C24.255 18.645 24.3075 18.54 24.4125 18.54H24.5175C24.8325 18.54 25.1475 18.54 25.3575 18.75C25.41 18.855 25.4625 19.0125 25.41 19.275ZM30.765 19.2225H29.8725C29.82 19.2225 29.715 19.275 29.715 19.38L29.6625 19.6425L29.61 19.5375C29.4 19.275 28.98 19.17 28.56 19.17C27.5625 19.17 26.7225 19.905 26.565 20.955C26.46 21.48 26.6175 22.005 26.88 22.32C27.1425 22.635 27.5625 22.7925 27.9825 22.7925C28.77 22.7925 29.2425 22.2675 29.2425 22.2675L29.19 22.53C29.19 22.635 29.2425 22.6875 29.3475 22.6875H30.135C30.24 22.6875 30.345 22.5825 30.3975 22.4775L30.87 19.4325C30.9225 19.3275 30.87 19.2225 30.765 19.2225ZM29.505 20.955C29.4 21.48 29.0325 21.795 28.5075 21.795C28.245 21.795 28.035 21.69 27.93 21.5325C27.7725 21.375 27.7725 21.165 27.7725 20.9025C27.8775 20.3775 28.245 20.0625 28.77 20.0625C29.0325 20.0625 29.2425 20.1675 29.3475 20.325C29.505 20.4825 29.5575 20.745 29.505 20.955Z" fill="#179BD7"/>
<path d="M18.7964 15.81L19.0064 14.34H18.4814H16.0664L17.7464 3.57754C17.7464 3.52504 17.7464 3.52504 17.7989 3.47254C17.7989 3.47254 17.8514 3.42004 17.9039 3.42004H21.9989C23.3639 3.42004 24.3089 3.68254 24.7814 4.26004C24.9914 4.52254 25.1489 4.78504 25.2539 5.10004C25.3064 5.41504 25.3064 5.78254 25.2539 6.25504V6.30754V6.62254L25.4639 6.72754C25.6739 6.83254 25.8314 6.93754 25.9364 7.09504C26.1464 7.30504 26.2514 7.62004 26.3039 7.93504C26.3564 8.30254 26.3564 8.72254 26.2514 9.19504C26.1464 9.72004 25.9889 10.1925 25.7264 10.6125C25.5164 10.98 25.2539 11.2425 24.9389 11.505C24.6239 11.715 24.2564 11.8725 23.8364 11.9775C23.4164 12.0825 22.9964 12.135 22.4714 12.135H22.1564C21.9464 12.135 21.6839 12.24 21.5264 12.345C21.3689 12.5025 21.2114 12.7125 21.2114 12.9225V13.08L20.7914 15.6525V15.7575C20.7914 15.81 20.7914 15.81 20.7914 15.81H20.7389H18.7964Z" fill="#253B80"/>
<path d="M25.7252 6.35999C25.7252 6.41249 25.6727 6.51749 25.6727 6.62249C25.1477 9.40499 23.2577 10.35 20.8952 10.35H19.6877C19.3727 10.35 19.1627 10.56 19.1102 10.8225L18.4802 14.76L18.3227 15.8625C18.2702 16.0725 18.4277 16.23 18.6377 16.23H20.7902C21.0527 16.23 21.2627 16.02 21.3152 15.81V15.705L21.7352 13.1325V12.975C21.7877 12.7125 21.9977 12.555 22.2602 12.555H22.5752C24.6752 12.555 26.2502 11.715 26.7752 9.29999C26.9852 8.30249 26.8802 7.40999 26.3552 6.83249C26.1452 6.62249 25.9352 6.46499 25.7252 6.35999Z" fill="#179BD7"/>
<path d="M25.1473 6.15005C25.0423 6.15005 24.9898 6.09755 24.8848 6.09755C24.7798 6.09755 24.7273 6.04505 24.6223 6.04505C24.3073 5.99255 23.9398 5.99255 23.5723 5.99255H20.3698C20.2648 5.99255 20.2123 5.99255 20.1598 6.04505C20.0023 6.09755 19.8973 6.25505 19.8973 6.41255L19.2148 10.7701V10.8751C19.2673 10.6126 19.5298 10.4026 19.7923 10.4026H20.9998C23.3623 10.4026 25.2523 9.45755 25.7773 6.67505C25.7773 6.57005 25.8298 6.51755 25.8298 6.41255C25.6723 6.36005 25.5673 6.25505 25.3573 6.20255C25.2523 6.15005 25.1998 6.15005 25.1473 6.15005Z" fill="#222D65"/>
<path d="M19.7936 6.36C19.8461 6.2025 19.9511 6.045 20.0561 5.9925C20.1086 5.94 20.2136 5.94 20.2661 5.94H23.4686C23.8361 5.94 24.2036 5.94 24.5186 5.9925C24.6236 5.9925 24.6761 6.045 24.7811 6.045C24.8861 6.045 24.9386 6.0975 25.0436 6.0975C25.0961 6.0975 25.1486 6.0975 25.1486 6.15C25.3061 6.2025 25.4636 6.255 25.6211 6.36C25.7786 5.31 25.6211 4.6275 25.0436 3.9975C24.4136 3.315 23.3111 3 21.8936 3H17.7986C17.4836 3 17.2736 3.21 17.2211 3.4725L15.4886 14.34C15.4361 14.55 15.6461 14.76 15.8561 14.76H18.3761L19.0061 10.7175L19.7936 6.36Z" fill="#253B80"/>
</g>
</g>
</g>
<rect x="0.5" y="0.5" width="41" height="26" stroke="#EEEEEE"/>
<g clip-path="url(#clip3_273_2847)">
<g clip-path="url(#clip4_273_2847)">
<g clip-path="url(#clip5_273_2847)">
<path d="M61 0.375H103V26.625H61V0.375Z" fill="white"/>
<path fill-rule="evenodd" clip-rule="evenodd" d="M73.7584 18.0675H71.2384L69.3484 10.77C69.2434 10.455 69.0859 10.14 68.7709 9.98252C68.0884 9.61502 67.3009 9.35252 66.4609 9.19502V8.93252H70.5559C71.1334 8.93252 71.5534 9.35252 71.6059 9.82502L72.6034 15.075L75.1234 8.93252H77.5909L73.7584 18.0675ZM78.9559 18.0675H76.5409L78.5359 8.98502H80.9509L78.9559 18.0675ZM84.0484 11.505C84.1009 11.0325 84.5209 10.7175 85.0459 10.7175C85.8334 10.665 86.6734 10.77 87.3559 11.1375L87.7759 9.19502C87.0934 8.93252 86.3059 8.77502 85.5709 8.77502C83.2609 8.77502 81.5284 10.035 81.5284 11.7675C81.5284 13.08 82.7359 13.815 83.5759 14.235C84.4684 14.655 84.8359 14.9175 84.7834 15.3375C84.7834 15.9675 84.1009 16.23 83.3659 16.23C82.5259 16.23 81.6859 16.02 80.8984 15.6525L80.4784 17.595C81.3184 17.9625 82.2634 18.0675 83.1034 18.0675C85.7284 18.12 87.3559 16.86 87.3559 14.97C87.4084 12.7125 84.0484 12.555 84.0484 11.505ZM95.8084 18.0675L93.9184 8.98502H91.8709C91.4509 8.98502 91.0309 9.24752 90.8734 9.66752L87.3559 18.0675H89.8234L90.2959 16.755H93.3409L93.6034 18.0675H95.8084ZM92.1859 11.4525L92.8684 14.865H90.9259L92.1859 11.4525Z" fill="#172B85"/>
</g>
</g>
</g>
<rect x="61.5" y="0.5" width="41" height="26" stroke="#EEEEEE"/>
<g clip-path="url(#clip6_273_2847)">
<g clip-path="url(#clip7_273_2847)">
<g clip-path="url(#clip8_273_2847)">
<path d="M165 0.375H123V26.625H165V0.375Z" fill="white"/>
<path fill-rule="evenodd" clip-rule="evenodd" d="M144.317 19.695C142.899 20.955 141.009 21.69 139.014 21.69C134.499 21.69 130.824 17.9625 130.824 13.395C130.824 8.82748 134.499 5.09998 139.014 5.09998C141.062 5.09998 142.899 5.83498 144.317 7.09498C145.734 5.83498 147.572 5.09998 149.619 5.09998C154.134 5.09998 157.809 8.82748 157.809 13.395C157.809 17.9625 154.134 21.69 149.619 21.69C147.572 21.69 145.734 20.9025 144.317 19.695Z" fill="#ED0006"/>
<path fill-rule="evenodd" clip-rule="evenodd" d="M144.316 19.695C146.101 18.1725 147.204 15.915 147.204 13.395C147.204 10.875 146.101 8.61748 144.316 7.09498C145.734 5.83498 147.571 5.09998 149.619 5.09998C154.134 5.09998 157.809 8.82748 157.809 13.395C157.809 17.9625 154.134 21.69 149.619 21.69C147.571 21.69 145.734 20.9025 144.316 19.695Z" fill="#F9A000"/>
<path fill-rule="evenodd" clip-rule="evenodd" d="M144.313 19.695C146.098 18.1725 147.201 15.915 147.201 13.395C147.201 10.875 146.098 8.61747 144.313 7.09497C142.528 8.61747 141.426 10.875 141.426 13.395C141.426 15.915 142.528 18.1725 144.313 19.695Z" fill="#FF5E00"/>
</g>
</g>
</g>
<rect x="123.5" y="0.5" width="41" height="26" stroke="#EEEEEE"/>
<g clip-path="url(#clip9_273_2847)">
<g clip-path="url(#clip10_273_2847)">
<g clip-path="url(#clip11_273_2847)">
<path d="M246 0.375H288V26.625H246V0.375Z" fill="white"/>
<path d="M258.968 5.09998H265.583C266.528 5.09998 267.106 5.83498 266.843 6.77998L263.746 20.01C263.536 20.955 262.591 21.69 261.698 21.69H255.136C254.191 21.69 253.613 20.955 253.876 20.01L256.973 6.77998C257.131 5.83498 258.076 5.09998 258.968 5.09998Z" fill="#E21836"/>
<path d="M265.056 5.09998H272.669C273.614 5.09998 273.194 5.83498 272.984 6.77998L269.886 20.01C269.676 20.955 269.729 21.69 268.836 21.69H261.171C260.226 21.69 259.649 20.955 259.911 20.01L263.009 6.77998C263.219 5.83498 264.111 5.09998 265.056 5.09998Z" fill="#00447C"/>
<path d="M272.355 5.09998H278.97C279.915 5.09998 280.493 5.83498 280.23 6.77998L277.133 20.01C276.923 20.955 275.978 21.69 275.085 21.69H268.523C267.578 21.69 267 20.955 267.263 20.01L270.36 6.77998C270.518 5.83498 271.463 5.09998 272.355 5.09998Z" fill="#007B84"/>
<path d="M260.699 9.35255C260.017 9.35255 259.807 9.35255 259.754 9.35255C259.754 9.45755 259.282 11.61 259.282 11.61C259.177 12.03 259.124 12.345 258.862 12.555C258.704 12.66 258.547 12.7125 258.389 12.7125C258.074 12.7125 257.917 12.555 257.864 12.2925V12.1875L257.969 11.61C257.969 11.61 258.442 9.66755 258.547 9.40505C258.547 9.40505 258.547 9.40505 258.547 9.35255C257.602 9.35255 257.444 9.35255 257.444 9.35255L257.392 9.51005L256.919 11.6625L256.867 11.8725L256.762 12.45C256.762 12.6075 256.814 12.765 256.867 12.9225C257.077 13.29 257.707 13.395 258.074 13.395C258.547 13.395 258.967 13.29 259.282 13.1325C259.807 12.8175 259.912 12.345 260.069 11.925L260.122 11.715C260.122 11.61 260.647 9.61505 260.699 9.35255ZM262.432 10.98C262.327 10.98 262.117 11.0325 261.907 11.085C261.854 11.1375 261.749 11.19 261.697 11.19L261.749 10.98L261.697 10.9275C261.277 11.0325 261.172 11.0325 260.804 11.085H260.752C260.699 11.4525 260.647 11.715 260.489 12.45C260.437 12.7125 260.384 12.975 260.279 13.2375V13.29C260.699 13.29 260.804 13.29 261.119 13.29L261.172 13.2375C261.224 13.0275 261.224 12.975 261.329 12.5025C261.382 12.2925 261.487 11.82 261.539 11.6625C261.644 11.61 261.697 11.5575 261.802 11.5575C262.012 11.5575 261.959 11.715 261.959 11.7675C261.959 11.8725 261.907 12.24 261.802 12.555L261.749 12.87C261.697 13.0275 261.697 13.185 261.644 13.29V13.3425C262.012 13.3425 262.169 13.3425 262.484 13.3425L262.537 13.29C262.589 12.9225 262.589 12.87 262.747 12.345L262.799 12.135C262.904 11.6625 262.957 11.4525 262.852 11.2425C262.799 11.0325 262.589 10.98 262.432 10.98ZM264.322 11.4525C264.112 11.505 264.007 11.505 263.849 11.5575C263.744 11.5575 263.587 11.61 263.377 11.61C263.377 11.7675 263.324 11.8725 263.324 12.03C263.324 12.1875 263.272 12.345 263.219 12.6075C263.167 12.8175 263.167 12.87 263.114 12.9225C263.114 12.975 263.062 13.08 263.009 13.2375C263.219 13.2375 263.324 13.2375 263.429 13.2375C263.534 13.2375 263.692 13.2375 263.902 13.2375C263.954 13.08 263.954 13.0275 263.954 12.9225C263.954 12.8175 264.007 12.7125 264.059 12.345C264.112 12.1875 264.112 12.03 264.164 11.8725C264.217 11.7675 264.269 11.61 264.322 11.4525ZM264.322 10.77C264.112 10.665 263.797 10.7175 263.587 10.8225C263.377 10.98 263.324 11.19 263.534 11.295C263.744 11.4 264.059 11.3475 264.269 11.2425C264.479 11.1375 264.479 10.875 264.322 10.77ZM265.424 13.3425C265.792 13.3425 266.212 13.2375 266.474 12.9225C266.684 12.66 266.789 12.2925 266.842 12.135C266.947 11.61 266.842 11.4 266.737 11.2425C266.579 11.0325 266.264 10.9275 265.949 10.9275C265.739 10.9275 265.319 10.9275 264.952 11.295C264.689 11.5575 264.584 11.8725 264.532 12.135C264.479 12.45 264.374 13.0275 264.899 13.2375C265.057 13.3425 265.267 13.3425 265.424 13.3425ZM265.424 12.1875C265.529 11.82 265.634 11.4525 265.897 11.4525C266.107 11.4525 266.107 11.715 266.002 12.0825C266.002 12.1875 265.897 12.5025 265.792 12.6075C265.739 12.7125 265.634 12.765 265.529 12.765C265.477 12.765 265.319 12.765 265.319 12.5025C265.372 12.45 265.372 12.345 265.424 12.1875ZM267.839 13.29C267.892 13.0275 267.944 12.975 267.997 12.555C268.049 12.345 268.154 11.8725 268.207 11.715C268.312 11.6625 268.364 11.61 268.469 11.61C268.679 11.61 268.627 11.7675 268.627 11.82C268.627 11.925 268.574 12.2925 268.469 12.6075L268.417 12.8175C268.364 12.975 268.364 13.1325 268.312 13.2375V13.29C268.679 13.29 268.837 13.29 269.152 13.29L269.204 13.2375C269.257 12.87 269.257 12.8175 269.414 12.2925L269.467 12.0825C269.572 11.61 269.624 11.4 269.572 11.19C269.467 10.98 269.309 10.9275 269.099 10.9275C268.994 10.9275 268.784 10.98 268.574 11.0325C268.522 11.085 268.417 11.1375 268.364 11.1375L268.417 10.9275L268.364 10.875C267.944 10.98 267.839 10.98 267.472 11.0325H267.419C267.367 11.4 267.314 11.6625 267.157 12.3975C267.104 12.66 267.052 12.9225 266.947 13.185V13.2375C267.367 13.29 267.472 13.29 267.839 13.29ZM270.674 13.3425C270.674 13.2375 270.832 12.5025 270.832 12.5025C270.832 12.5025 270.937 11.9775 270.989 11.9775L271.042 11.925H271.094C271.619 11.925 272.249 11.925 272.722 11.5575C273.037 11.295 273.247 10.98 273.352 10.5075C273.352 10.4025 273.404 10.2975 273.404 10.14C273.404 9.98255 273.352 9.82505 273.299 9.66755C273.037 9.30005 272.564 9.30005 271.987 9.30005H271.724C270.989 9.30005 270.727 9.30005 270.622 9.30005C270.622 9.35255 270.569 9.45755 270.569 9.45755L270.307 10.665C270.307 10.665 269.677 13.185 269.677 13.3425C270.307 13.29 270.569 13.29 270.674 13.3425ZM271.147 11.19L271.409 9.98255V9.93005V9.87755H271.514L272.092 9.93005C272.302 10.035 272.407 10.245 272.354 10.5075C272.302 10.77 272.144 10.98 271.882 11.085C271.724 11.19 271.462 11.19 271.252 11.19H271.094H271.147ZM272.879 12.24C272.827 12.555 272.722 13.1325 273.247 13.29C273.404 13.3425 273.562 13.395 273.719 13.395C273.877 13.395 274.034 13.29 274.139 13.185C274.139 13.2375 274.139 13.29 274.087 13.3425V13.395C274.454 13.395 274.559 13.395 274.979 13.395L275.032 13.3425C275.084 12.975 275.137 12.66 275.294 11.9775C275.347 11.6625 275.452 11.3475 275.504 11.0325V10.98C275.084 11.0325 274.979 11.085 274.559 11.1375H274.507C274.507 11.19 274.507 11.19 274.507 11.2425C274.454 11.1375 274.349 11.0325 274.192 10.98C274.034 10.9275 273.614 10.98 273.247 11.3475C273.037 11.61 272.932 11.925 272.879 12.24ZM273.719 12.24C273.824 11.8725 273.929 11.5575 274.192 11.5575C274.349 11.5575 274.454 11.715 274.454 11.9775C274.454 12.03 274.402 12.135 274.402 12.1875C274.349 12.2925 274.349 12.3975 274.297 12.5025C274.244 12.555 274.244 12.66 274.192 12.7125C274.139 12.8175 273.982 12.87 273.877 12.87C273.824 12.87 273.667 12.87 273.667 12.6075C273.667 12.5025 273.719 12.3975 273.719 12.24ZM278.287 10.98C277.867 11.0325 277.762 11.0325 277.394 11.085L277.342 11.1375C277.079 11.7675 277.079 11.6625 276.817 12.135V12.0825L276.764 10.98L276.712 10.9275C276.292 11.0325 276.292 11.0325 275.872 11.085L275.819 11.1375V11.19C275.872 11.4525 275.872 11.4 275.924 11.7675C275.924 11.9775 275.977 12.1875 275.977 12.345C276.029 12.66 276.029 12.8175 276.082 13.3425C275.819 13.7625 275.767 13.9725 275.504 14.34L275.399 14.655C275.399 14.7075 275.347 14.7075 275.347 14.7075C275.294 14.7075 275.294 14.7075 275.242 14.7075H275.137L274.979 15.18H275.504C275.819 15.18 275.977 15.0225 276.082 14.865L276.397 14.2875L276.449 14.235C276.659 13.815 278.287 10.98 278.287 10.98ZM272.879 17.5425H272.669L273.457 14.865H273.719L273.824 14.6025V14.9175C273.824 15.1275 273.982 15.285 274.349 15.2325H274.822L274.979 14.7075H274.822C274.717 14.7075 274.664 14.7075 274.664 14.655V14.34H273.824C273.562 14.34 272.722 14.34 272.564 14.3925C272.354 14.445 272.144 14.6025 272.144 14.6025L272.249 14.34H271.462L271.304 14.865L270.464 17.595H270.307L270.149 18.12H271.724L271.672 18.2775H272.459L272.512 18.12H272.722L272.879 17.5425ZM272.249 15.39C272.144 15.4425 271.882 15.5475 271.882 15.5475L272.092 14.865H272.722L272.564 15.3375C272.564 15.39 272.354 15.39 272.249 15.39ZM272.249 16.3875C272.249 16.3875 272.039 16.3875 271.934 16.44C271.829 16.4925 271.567 16.5975 271.567 16.5975L271.777 15.8625H272.407L272.249 16.3875ZM271.882 17.5425H271.252L271.409 16.965H272.039L271.882 17.5425ZM273.404 15.8625H274.297L274.192 16.2825H273.299L273.142 16.755H273.929L273.299 17.595C273.247 17.7 273.247 17.7 273.194 17.7C273.142 17.7 273.089 17.7525 273.037 17.7525H272.827L272.669 18.2775H273.247C273.562 18.2775 273.719 18.12 273.877 17.9625L274.297 17.385L274.402 17.9625C274.402 18.0675 274.507 18.12 274.559 18.1725C274.612 18.225 274.664 18.2775 274.769 18.2775C274.874 18.2775 274.927 18.2775 274.979 18.2775H275.242L275.399 17.7H275.294C275.242 17.7 275.137 17.7 275.084 17.6475C275.084 17.6475 275.084 17.595 275.032 17.5425L274.927 16.965H274.559L274.717 16.755H275.609L275.767 16.2825H274.927L275.032 15.8625H275.872L276.029 15.3375H273.509L273.404 15.8625ZM265.792 17.6475L266.002 16.965H266.842L266.999 16.44H266.159L266.317 16.02H267.157L267.314 15.495H265.214L265.057 16.02H265.529L265.424 16.44H264.899L264.742 16.965H265.214L264.952 17.91C264.899 18.015 264.952 18.0675 265.004 18.12C265.057 18.1725 265.057 18.225 265.162 18.225C265.267 18.225 265.319 18.2775 265.372 18.2775H266.369L266.527 17.7L266.107 17.7525C266.002 17.7525 265.792 17.7525 265.792 17.6475ZM265.897 14.34L265.687 14.76C265.634 14.865 265.582 14.9175 265.582 14.9175C265.529 14.9175 265.477 14.97 265.372 14.97H265.267L265.109 15.495H265.477C265.634 15.495 265.792 15.4425 265.844 15.39C265.897 15.3375 265.949 15.39 266.002 15.3375L266.107 15.2325H267.314L267.472 14.7075H266.632L266.789 14.445H265.897V14.34ZM267.629 17.6475C267.629 17.595 267.629 17.5425 267.629 17.4375L267.944 16.3875H269.099C269.257 16.3875 269.362 16.3875 269.467 16.3875C269.572 16.3875 269.624 16.335 269.729 16.2825C269.834 16.23 269.887 16.1775 269.939 16.0725C269.992 16.02 270.044 15.8625 270.149 15.6L270.569 14.235H269.362C269.362 14.235 268.994 14.2875 268.837 14.34C268.679 14.3925 268.417 14.6025 268.417 14.6025L268.522 14.235H267.787L266.737 17.6475C266.684 17.805 266.684 17.8575 266.684 17.91C266.684 17.9625 266.737 18.015 266.789 18.0675C266.842 18.12 266.947 18.12 267.052 18.12C267.157 18.12 267.262 18.12 267.472 18.12H268.049L268.207 17.5425L267.682 17.595C267.682 17.7 267.682 17.7 267.629 17.6475ZM268.207 15.705H269.414L269.362 15.9675C269.362 15.9675 269.309 15.9675 269.204 15.9675H268.154L268.207 15.705ZM268.417 14.865H269.624L269.519 15.18C269.519 15.18 268.942 15.18 268.837 15.18C268.417 15.2325 268.207 15.4425 268.207 15.4425L268.417 14.865ZM269.362 16.755C269.362 16.8075 269.362 16.8075 269.309 16.8075C269.309 16.8075 269.257 16.8075 269.204 16.8075H269.047V16.4925H268.312L268.259 17.91C268.259 18.015 268.259 18.0675 268.364 18.12C268.417 18.1725 268.679 18.1725 268.994 18.1725H269.467L269.624 17.6475H269.257H269.152C269.152 17.6475 269.099 17.6475 269.099 17.595C269.099 17.595 269.047 17.595 269.047 17.49V17.1225H269.467C269.677 17.1225 269.782 17.07 269.887 16.965C269.939 16.9125 269.992 16.8075 269.992 16.7025L270.044 16.3875H269.467L269.362 16.755Z" fill="#FEFEFE"/>
</g>
</g>
</g>
<rect x="246.5" y="0.5" width="41" height="26" stroke="#EEEEEE"/>
<g clip-path="url(#clip12_273_2847)">
<g clip-path="url(#clip13_273_2847)">
<g clip-path="url(#clip14_273_2847)">
<path d="M226 0.375H184V26.625H226V0.375Z" fill="white"/>
<g clip-path="url(#clip15_273_2847)">
<path d="M217.74 9.08887H211.637C211.992 11.1037 213.948 13 216.081 13H220.94C221 12.8222 221 12.5259 221 12.3481C221 10.5703 219.518 9.08887 217.74 9.08887Z" fill="url(#paint0_linear_273_2847)"/>
<path d="M212.172 13.3555V18.274H215.135V15.6666H217.742C219.164 15.6666 220.409 14.6592 220.824 13.3555H212.172Z" fill="#4FAD50"/>
<path d="M201.742 9.08887V18.2148H204.35C204.35 18.2148 205.001 18.2148 205.357 17.5629C207.135 14.0666 207.668 13 207.668 13H208.024V18.2148H210.987V9.08887H208.379C208.379 9.08887 207.727 9.14813 207.372 9.74072C205.89 12.7629 205.061 14.3037 205.061 14.3037H204.705V9.08887H201.742Z" fill="#4FAD50"/>
<path d="M189.297 18.2741V9.14819H192.26C192.26 9.14819 193.089 9.14819 193.564 10.4519C194.749 13.8889 194.867 14.363 194.867 14.363C194.867 14.363 195.104 13.5334 196.171 10.4519C196.645 9.14819 197.475 9.14819 197.475 9.14819H200.438V18.2741H197.475V13.3556H197.119L195.46 18.2741H194.156L192.497 13.3556H192.141V18.2741H189.297Z" fill="#4FAD50"/>
</g>
</g>
</g>
</g>
<rect x="184.5" y="0.5" width="41" height="26" stroke="#EEEEEE"/>
<defs>
<linearGradient id="paint0_linear_273_2847" x1="211.626" y1="11.0725" x2="220.979" y2="11.0725" gradientUnits="userSpaceOnUse">
<stop stop-color="#27B1E6"/>
<stop offset="1" stop-color="#148ACA"/>
</linearGradient>
<clipPath id="clip0_273_2847">
<rect width="42" height="27" fill="white"/>
</clipPath>
<clipPath id="clip1_273_2847">
<rect width="42" height="27" fill="white"/>
</clipPath>
<clipPath id="clip2_273_2847">
<rect width="42" height="26.25" fill="white" transform="translate(0 0.375)"/>
</clipPath>
<clipPath id="clip3_273_2847">
<rect x="61" width="42" height="27" fill="white"/>
</clipPath>
<clipPath id="clip4_273_2847">
<rect width="42" height="27" fill="white" transform="translate(61)"/>
</clipPath>
<clipPath id="clip5_273_2847">
<rect width="42" height="26.25" fill="white" transform="translate(61 0.375)"/>
</clipPath>
<clipPath id="clip6_273_2847">
<rect x="123" width="42" height="27" fill="white"/>
</clipPath>
<clipPath id="clip7_273_2847">
<rect width="42" height="27" fill="white" transform="translate(123)"/>
</clipPath>
<clipPath id="clip8_273_2847">
<rect width="42" height="26.25" fill="white" transform="translate(123 0.375)"/>
</clipPath>
<clipPath id="clip9_273_2847">
<rect x="246" width="42" height="27" fill="white"/>
</clipPath>
<clipPath id="clip10_273_2847">
<rect width="42" height="27" fill="white" transform="translate(246)"/>
</clipPath>
<clipPath id="clip11_273_2847">
<rect width="42" height="26.25" fill="white" transform="translate(246 0.375)"/>
</clipPath>
<clipPath id="clip12_273_2847">
<rect x="184" width="42" height="27" fill="white"/>
</clipPath>
<clipPath id="clip13_273_2847">
<rect width="42" height="27" fill="white" transform="translate(184)"/>
</clipPath>
<clipPath id="clip14_273_2847">
<rect width="42" height="26.25" fill="white" transform="translate(184 0.375)"/>
</clipPath>
<clipPath id="clip15_273_2847">
<rect width="32" height="9.48148" fill="white" transform="translate(189 9)"/>
</clipPath>
</defs>
</svg>
