<svg width="27" height="23" viewBox="0 0 27 23" fill="none" xmlns="http://www.w3.org/2000/svg">
<path d="M25.2253 5.41127H7.25161L5.1911 0.79275C5.08561 0.556411 4.91561 0.355994 4.70138 0.215425C4.48715 0.0748558 4.23775 7.18925e-05 3.98294 0H0V2.70563H3.12794L9.41302 16.7939C9.51851 17.0302 9.68851 17.2306 9.90274 17.3712C10.117 17.5118 10.3664 17.5865 10.6212 17.5866H21.2424C21.7734 17.5866 22.254 17.2646 22.4625 16.7668L26.4454 7.29709C26.5327 7.09138 26.5683 6.86676 26.5491 6.6435C26.5299 6.42024 26.4565 6.20537 26.3354 6.01826C26.2144 5.83115 26.0495 5.67769 25.8557 5.57172C25.6619 5.46575 25.4452 5.41061 25.2253 5.41127Z" fill="white"/>
<path d="M11.2844 22.9979C12.3843 22.9979 13.2759 22.0894 13.2759 20.9687C13.2759 19.848 12.3843 18.9395 11.2844 18.9395C10.1846 18.9395 9.29297 19.848 9.29297 20.9687C9.29297 22.0894 10.1846 22.9979 11.2844 22.9979Z" fill="white"/>
<path d="M20.5774 22.9979C21.6773 22.9979 22.5689 22.0894 22.5689 20.9687C22.5689 19.848 21.6773 18.9395 20.5774 18.9395C19.4775 18.9395 18.5859 19.848 18.5859 20.9687C18.5859 22.0894 19.4775 22.9979 20.5774 22.9979Z" fill="white"/>
</svg>
