<svg width="89" height="89" viewBox="0 0 89 89" fill="none" xmlns="http://www.w3.org/2000/svg">
<path fill-rule="evenodd" clip-rule="evenodd" d="M89 44.5C89 49.4537 88.1906 54.2184 86.6967 58.669H2.30326C0.809434 54.2184 0 49.4537 0 44.5C0 19.9233 19.9233 0 44.5 0C69.0767 0 89 19.9233 89 44.5ZM44.5 89C32.4437 89 21.5073 84.2055 13.4932 76.4192H75.5068C67.4927 84.2055 56.5563 89 44.5 89ZM71.3118 38.0392C68.5506 33.8248 60.1946 25.5829 48.8594 26.3303C34.6904 27.2645 18.7152 33.7106 12.1445 54.824C14.6855 47.91 22.3909 36.516 36.0606 32.3734C34.8772 35.1443 33.9243 41.2716 39.5795 43.6134C45.2346 45.9552 49.4926 44.1947 50.9146 43.0217C52.2952 41.7974 54.5207 37.7106 52.3783 31.1579C52.9429 31.2293 53.5138 31.3119 54.091 31.4062C56.29 32.0367 60.5859 33.7151 64.0528 36.2642C61.1993 41.174 50.9146 49.7792 32.6039 44.9213C39.2421 47.4437 55.1607 49.5176 65.7299 37.6344C66.29 38.1471 66.807 38.6872 67.2635 39.2537C65.0629 42.7414 57.6161 49.7169 45.4339 49.7169C33.2517 49.7169 28.3169 44.5268 27.3723 41.9318C28.5141 45.2431 33.725 51.8656 45.4339 51.8656C60.07 51.8656 71.3118 41.5269 71.3118 38.0392Z" fill="white"/>
<path d="M35.1417 69.7008C35.1417 69.6892 35.1533 69.6834 35.1766 69.6834C35.194 69.6834 35.2086 69.6863 35.2202 69.6921C35.2376 69.6979 35.2463 69.7066 35.2463 69.7183C35.194 70.0845 35.1679 70.4681 35.1679 70.8692C35.1679 70.9157 35.1562 70.9506 35.133 70.9738C35.1155 70.9913 35.0807 71 35.0284 71H31.3749C31.3633 71 31.3575 70.9826 31.3575 70.9477C31.3575 70.9128 31.3633 70.8954 31.3749 70.8954C31.5958 70.8954 31.7557 70.8808 31.8545 70.8518C31.9591 70.8227 32.0289 70.7675 32.0638 70.6861C32.1045 70.5989 32.1248 70.4681 32.1248 70.2937V66.2567C32.1248 66.0823 32.1045 65.9544 32.0638 65.873C32.0289 65.7916 31.9591 65.7364 31.8545 65.7073C31.7557 65.6725 31.5958 65.655 31.3749 65.655C31.3633 65.655 31.3575 65.6376 31.3575 65.6027C31.3575 65.5678 31.3633 65.5504 31.3749 65.5504H34.8801C34.9324 65.5504 34.9586 65.5765 34.9586 65.6289L34.976 66.7013C34.976 66.7188 34.9615 66.7304 34.9324 66.7362C34.9034 66.7362 34.8859 66.7275 34.8801 66.7101C34.8627 66.402 34.7697 66.1636 34.6011 65.9951C34.4325 65.8207 34.2087 65.7335 33.9297 65.7335H33.3978C33.1944 65.7335 33.0432 65.7509 32.9444 65.7858C32.8514 65.8149 32.7846 65.8701 32.7439 65.9515C32.709 66.027 32.6916 66.1433 32.6916 66.3003V68.0703H33.7553C34.0343 68.0703 34.232 68.0238 34.3482 67.9308C34.4703 67.8378 34.5314 67.6808 34.5314 67.4599C34.5314 67.4483 34.5488 67.4425 34.5837 67.4425C34.6185 67.4425 34.636 67.4483 34.636 67.4599L34.6273 68.1662C34.6273 68.3348 34.6302 68.4627 34.636 68.5499L34.6447 68.9684C34.6447 68.98 34.6273 68.9858 34.5924 68.9858C34.5575 68.9858 34.5401 68.98 34.5401 68.9684C34.5401 68.7126 34.4761 68.5295 34.3482 68.4191C34.2262 68.3086 34.0198 68.2534 33.7292 68.2534H32.6916V70.2589C32.6916 70.4216 32.709 70.5408 32.7439 70.6163C32.7788 70.6919 32.8427 70.7442 32.9357 70.7733C33.0287 70.8024 33.174 70.8169 33.3717 70.8169H34.0692C34.3482 70.8169 34.5808 70.7181 34.7668 70.5204C34.9528 70.3228 35.0778 70.0496 35.1417 69.7008ZM41.037 65.5504C41.0486 65.5504 41.0544 65.5678 41.0544 65.6027C41.0544 65.6376 41.0486 65.655 41.037 65.655C40.8277 65.655 40.6155 65.7335 40.4004 65.8904C40.1854 66.0416 39.9935 66.2508 39.825 66.5182L38.6566 68.3144V70.2937C38.6566 70.4739 38.674 70.6047 38.7089 70.6861C38.7438 70.7675 38.8106 70.8227 38.9094 70.8518C39.0141 70.8808 39.1768 70.8954 39.3977 70.8954C39.4152 70.8954 39.4239 70.9128 39.4239 70.9477C39.4239 70.9826 39.4152 71 39.3977 71C39.2175 71 39.078 70.9971 38.9792 70.9913L38.3688 70.9826L37.7672 70.9913C37.6626 70.9971 37.5201 71 37.3399 71C37.3225 71 37.3138 70.9826 37.3138 70.9477C37.3138 70.9128 37.3225 70.8954 37.3399 70.8954C37.5608 70.8954 37.7207 70.8808 37.8195 70.8518C37.9241 70.8227 37.9939 70.7675 38.0288 70.6861C38.0695 70.5989 38.0898 70.4681 38.0898 70.2937V68.4539L36.6424 66.3351C36.4796 66.0794 36.3256 65.9021 36.1803 65.8032C36.0349 65.7044 35.8664 65.655 35.6745 65.655C35.6571 65.655 35.6484 65.6376 35.6484 65.6027C35.6484 65.5678 35.6571 65.5504 35.6745 65.5504C35.7443 65.5504 35.8489 65.5562 35.9884 65.5678L36.2936 65.5765C36.4913 65.5765 36.7412 65.5707 37.0435 65.5591L37.5143 65.5504C37.526 65.5504 37.5318 65.5678 37.5318 65.6027C37.5318 65.6376 37.526 65.655 37.5143 65.655C37.2121 65.655 37.0609 65.7161 37.0609 65.8381C37.0609 65.9021 37.09 65.9747 37.1481 66.0561L38.5519 68.1139L39.6157 66.4834C39.7436 66.2799 39.8075 66.1084 39.8075 65.9689C39.8075 65.7596 39.6506 65.655 39.3367 65.655C39.3251 65.655 39.3192 65.6376 39.3192 65.6027C39.3192 65.5678 39.3251 65.5504 39.3367 65.5504L39.7465 65.5591C39.9674 65.5707 40.1708 65.5765 40.3569 65.5765C40.4557 65.5765 40.5748 65.5707 40.7143 65.5591L41.037 65.5504ZM45.1383 69.7008C45.1383 69.6892 45.15 69.6834 45.1732 69.6834C45.1907 69.6834 45.2052 69.6863 45.2168 69.6921C45.2343 69.6979 45.243 69.7066 45.243 69.7183C45.1907 70.0845 45.1645 70.4681 45.1645 70.8692C45.1645 70.9157 45.1529 70.9506 45.1296 70.9738C45.1122 70.9913 45.0773 71 45.025 71H41.3716C41.3599 71 41.3541 70.9826 41.3541 70.9477C41.3541 70.9128 41.3599 70.8954 41.3716 70.8954C41.5925 70.8954 41.7523 70.8808 41.8511 70.8518C41.9558 70.8227 42.0255 70.7675 42.0604 70.6861C42.1011 70.5989 42.1214 70.4681 42.1214 70.2937V66.2567C42.1214 66.0823 42.1011 65.9544 42.0604 65.873C42.0255 65.7916 41.9558 65.7364 41.8511 65.7073C41.7523 65.6725 41.5925 65.655 41.3716 65.655C41.3599 65.655 41.3541 65.6376 41.3541 65.6027C41.3541 65.5678 41.3599 65.5504 41.3716 65.5504H44.8768C44.9291 65.5504 44.9552 65.5765 44.9552 65.6289L44.9727 66.7013C44.9727 66.7188 44.9581 66.7304 44.9291 66.7362C44.9 66.7362 44.8826 66.7275 44.8768 66.7101C44.8593 66.402 44.7663 66.1636 44.5977 65.9951C44.4292 65.8207 44.2054 65.7335 43.9264 65.7335H43.3945C43.191 65.7335 43.0399 65.7509 42.9411 65.7858C42.8481 65.8149 42.7812 65.8701 42.7405 65.9515C42.7056 66.027 42.6882 66.1433 42.6882 66.3003V68.0703H43.752C44.031 68.0703 44.2286 68.0238 44.3449 67.9308C44.467 67.8378 44.528 67.6808 44.528 67.4599C44.528 67.4483 44.5454 67.4425 44.5803 67.4425C44.6152 67.4425 44.6326 67.4483 44.6326 67.4599L44.6239 68.1662C44.6239 68.3348 44.6268 68.4627 44.6326 68.5499L44.6413 68.9684C44.6413 68.98 44.6239 68.9858 44.589 68.9858C44.5541 68.9858 44.5367 68.98 44.5367 68.9684C44.5367 68.7126 44.4728 68.5295 44.3449 68.4191C44.2228 68.3086 44.0165 68.2534 43.7258 68.2534H42.6882V70.2589C42.6882 70.4216 42.7056 70.5408 42.7405 70.6163C42.7754 70.6919 42.8393 70.7442 42.9323 70.7733C43.0253 70.8024 43.1707 70.8169 43.3683 70.8169H44.0659C44.3449 70.8169 44.5774 70.7181 44.7634 70.5204C44.9494 70.3228 45.0744 70.0496 45.1383 69.7008ZM47.293 70.2589C47.293 70.4274 47.3104 70.5495 47.3453 70.6251C47.3802 70.7006 47.4441 70.753 47.5371 70.782C47.6301 70.8053 47.7813 70.8169 47.9905 70.8169H48.9409C49.2723 70.8169 49.5368 70.7152 49.7344 70.5117C49.9321 70.3083 50.0628 70.0263 50.1268 69.6659C50.1268 69.6485 50.1413 69.6427 50.1704 69.6485C50.2053 69.6485 50.2227 69.6572 50.2227 69.6747C50.1704 70.1571 50.1442 70.5553 50.1442 70.8692C50.1442 70.9157 50.1355 70.9506 50.1181 70.9738C50.1006 70.9913 50.0658 71 50.0134 71H45.9851C45.9735 71 45.9676 70.9826 45.9676 70.9477C45.9676 70.9128 45.9735 70.8954 45.9851 70.8954C46.206 70.8954 46.3658 70.8808 46.4646 70.8518C46.5693 70.8227 46.639 70.7675 46.6739 70.6861C46.7088 70.5989 46.7262 70.4681 46.7262 70.2937V66.2567C46.7262 66.0823 46.7088 65.9544 46.6739 65.873C46.639 65.7916 46.5693 65.7364 46.4646 65.7073C46.3658 65.6725 46.206 65.655 45.9851 65.655C45.9735 65.655 45.9676 65.6376 45.9676 65.6027C45.9676 65.5678 45.9735 65.5504 45.9851 65.5504L46.4123 65.5591C46.6565 65.5707 46.8541 65.5765 47.0052 65.5765C47.168 65.5765 47.3715 65.5707 47.6156 65.5591L48.0341 65.5504C48.0516 65.5504 48.0603 65.5678 48.0603 65.6027C48.0603 65.6376 48.0516 65.655 48.0341 65.655C47.8191 65.655 47.6592 65.6725 47.5546 65.7073C47.4557 65.7364 47.386 65.7945 47.3453 65.8817C47.3104 65.9631 47.293 66.091 47.293 66.2654V70.2589ZM52.0643 70.2937C52.0643 70.4681 52.0817 70.5989 52.1166 70.6861C52.1515 70.7675 52.2183 70.8227 52.3171 70.8518C52.4218 70.8808 52.5845 70.8954 52.8054 70.8954C52.8228 70.8954 52.8316 70.9128 52.8316 70.9477C52.8316 70.9826 52.8228 71 52.8054 71C52.631 71 52.4915 70.9971 52.3869 70.9913L51.7678 70.9826L51.1662 70.9913C51.0615 70.9971 50.9191 71 50.7389 71C50.7215 71 50.7128 70.9826 50.7128 70.9477C50.7128 70.9128 50.7215 70.8954 50.7389 70.8954C50.9598 70.8954 51.1197 70.8808 51.2185 70.8518C51.3231 70.8227 51.3929 70.7675 51.4277 70.6861C51.4684 70.5989 51.4888 70.4681 51.4888 70.2937V66.2567C51.4888 66.0823 51.4684 65.9544 51.4277 65.873C51.3929 65.7916 51.3231 65.7364 51.2185 65.7073C51.1197 65.6725 50.9598 65.655 50.7389 65.655C50.7215 65.655 50.7128 65.6376 50.7128 65.6027C50.7128 65.5678 50.7215 65.5504 50.7389 65.5504L51.1662 65.5591C51.4103 65.5707 51.6109 65.5765 51.7678 65.5765C51.9422 65.5765 52.1515 65.5707 52.3956 65.5591L52.8054 65.5504C52.8228 65.5504 52.8316 65.5678 52.8316 65.6027C52.8316 65.6376 52.8228 65.655 52.8054 65.655C52.5903 65.655 52.4305 65.6725 52.3258 65.7073C52.227 65.7422 52.1573 65.8032 52.1166 65.8904C52.0817 65.9718 52.0643 66.0997 52.0643 66.2741V70.2937ZM59.3627 65.5504C59.3801 65.5504 59.3888 65.5678 59.3888 65.6027C59.3888 65.6376 59.3801 65.655 59.3627 65.655C59.1185 65.655 58.9412 65.7219 58.8308 65.8556C58.7203 65.9893 58.6651 66.2072 58.6651 66.5095V71.1046C58.6651 71.1163 58.6506 71.125 58.6215 71.1308C58.5924 71.1366 58.5721 71.1337 58.5605 71.1221L54.5496 66.2654L54.4711 66.1782V70.0496C54.4711 70.3519 54.5234 70.5698 54.628 70.7035C54.7385 70.8314 54.9129 70.8954 55.1512 70.8954C55.1686 70.8954 55.1774 70.9128 55.1774 70.9477C55.1774 70.9826 55.1686 71 55.1512 71C55.0059 71 54.8954 70.9971 54.8199 70.9913L54.3839 70.9826L53.9392 70.9913C53.8578 70.9971 53.7387 71 53.5817 71C53.5701 71 53.5643 70.9826 53.5643 70.9477C53.5643 70.9128 53.5701 70.8954 53.5817 70.8954C53.8317 70.8954 54.009 70.8314 54.1136 70.7035C54.2182 70.5698 54.2705 70.3519 54.2705 70.0496V65.9689C54.0438 65.7596 53.8142 65.655 53.5817 65.655C53.5643 65.655 53.5555 65.6376 53.5555 65.6027C53.5555 65.5678 53.5643 65.5504 53.5817 65.5504L53.9043 65.5591C53.9741 65.5649 54.07 65.5678 54.1921 65.5678C54.3199 65.5678 54.4246 65.5649 54.506 65.5591C54.5873 65.5533 54.6513 65.5504 54.6978 65.5504C54.7443 65.5504 54.7763 65.562 54.7937 65.5853C54.817 65.6027 54.8518 65.6463 54.8983 65.7161C54.9681 65.8207 55.0378 65.9166 55.1076 66.0038L58.4646 70.1281V66.5095C58.4646 66.2072 58.4122 65.9893 58.3076 65.8556C58.2088 65.7219 58.0402 65.655 57.8019 65.655C57.7903 65.655 57.7844 65.6376 57.7844 65.6027C57.7844 65.5678 57.7903 65.5504 57.8019 65.5504L58.1419 65.5591C58.3163 65.5707 58.4587 65.5765 58.5692 65.5765C58.6738 65.5765 58.8191 65.5707 59.0052 65.5591L59.3627 65.5504Z" fill="white"/>
</svg>
