<svg width="816" height="169" viewBox="0 0 816 169" fill="none" xmlns="http://www.w3.org/2000/svg">
<rect width="816" height="169" fill="white"/>
<rect x="92" y="5" width="619" height="64" fill="white"/>
<rect x="92" y="74" width="619" height="60" fill="white"/>
<path d="M66.6506 72.589L49.4726 83.3253L32.2945 72.589V68.2945L49.4726 79.0308L66.6506 68.2945V72.589ZM66.6506 64H32.2945C29.9111 64 28 65.9111 28 68.2945V94.0616C28 95.2005 28.4525 96.2929 29.2578 97.0982C30.0632 97.9036 31.1555 98.3561 32.2945 98.3561H66.6506C67.7896 98.3561 68.8819 97.9036 69.6873 97.0982C70.4926 96.2929 70.9451 95.2005 70.9451 94.0616V68.2945C70.9451 67.1555 70.4926 66.0632 69.6873 65.2578C68.8819 64.4525 67.7896 64 66.6506 64Z" fill="#49365F"/>
<path d="M106.759 120.1C106.599 120.1 106.472 120.08 106.379 120.04C106.286 120 106.239 119.94 106.239 119.86C106.239 119.687 106.432 119.56 106.819 119.48C107.312 119.373 107.666 119.227 107.879 119.04C108.106 118.84 108.219 118.507 108.219 118.04V109C108.219 108.547 108.126 108.22 107.939 108.02C107.752 107.82 107.412 107.673 106.919 107.58C106.719 107.54 106.572 107.487 106.479 107.42C106.386 107.353 106.339 107.273 106.339 107.18C106.339 107.1 106.386 107.04 106.479 107C106.572 106.947 106.699 106.92 106.859 106.92C107.299 106.92 107.692 106.927 108.039 106.94C108.399 106.953 108.746 106.967 109.079 106.98C109.426 106.993 109.799 107 110.199 107C110.732 107 111.292 107 111.879 107C112.479 106.987 113.019 106.973 113.499 106.96C113.952 106.96 114.326 106.953 114.619 106.94C114.926 106.913 115.106 106.9 115.159 106.9C115.239 106.9 115.319 106.92 115.399 106.96C115.492 106.987 115.546 107.047 115.559 107.14C115.626 107.553 115.692 107.96 115.759 108.36C115.839 108.747 115.879 109.087 115.879 109.38C115.879 109.513 115.846 109.607 115.779 109.66C115.726 109.7 115.666 109.72 115.599 109.72C115.532 109.72 115.479 109.7 115.439 109.66C115.399 109.62 115.359 109.56 115.319 109.48C115.226 109.213 115.139 108.973 115.059 108.76C114.979 108.533 114.886 108.367 114.779 108.26C114.606 108.073 114.406 107.933 114.179 107.84C113.952 107.747 113.699 107.7 113.419 107.7H111.179C111.006 107.7 110.819 107.767 110.619 107.9C110.432 108.02 110.339 108.193 110.339 108.42V112.5C110.339 112.633 110.379 112.74 110.459 112.82C110.539 112.9 110.632 112.94 110.739 112.94H112.639C113.026 112.94 113.292 112.853 113.439 112.68C113.586 112.507 113.706 112.24 113.799 111.88C113.892 111.613 114.019 111.48 114.179 111.48C114.246 111.48 114.306 111.513 114.359 111.58C114.412 111.633 114.439 111.72 114.439 111.84C114.439 111.92 114.432 112.053 114.419 112.24C114.406 112.427 114.392 112.62 114.379 112.82C114.366 113.02 114.359 113.18 114.359 113.3C114.359 113.447 114.359 113.627 114.359 113.84C114.372 114.04 114.386 114.24 114.399 114.44C114.412 114.64 114.419 114.787 114.419 114.88C114.432 115 114.419 115.1 114.379 115.18C114.352 115.247 114.306 115.28 114.239 115.28C114.026 115.28 113.866 115.087 113.759 114.7C113.679 114.353 113.566 114.093 113.419 113.92C113.286 113.747 113.086 113.66 112.819 113.66H110.959C110.746 113.66 110.586 113.693 110.479 113.76C110.386 113.827 110.339 113.967 110.339 114.18V118C110.339 118.467 110.439 118.793 110.639 118.98C110.839 119.153 111.146 119.24 111.559 119.24H113.139C113.512 119.24 113.839 119.213 114.119 119.16C114.399 119.107 114.639 119.007 114.839 118.86C115.066 118.7 115.266 118.493 115.439 118.24C115.612 117.987 115.792 117.673 115.979 117.3C116.032 117.22 116.086 117.16 116.139 117.12C116.192 117.067 116.252 117.047 116.319 117.06C116.399 117.06 116.452 117.093 116.479 117.16C116.519 117.213 116.539 117.287 116.539 117.38C116.539 117.527 116.506 117.747 116.439 118.04C116.372 118.333 116.286 118.64 116.179 118.96C116.086 119.28 115.999 119.553 115.919 119.78C115.879 119.873 115.832 119.947 115.779 120C115.726 120.067 115.659 120.1 115.579 120.1C115.099 120.1 114.599 120.093 114.079 120.08C113.559 120.067 113.026 120.053 112.479 120.04C111.932 120.027 111.386 120.013 110.839 120C110.292 119.987 109.752 119.98 109.219 119.98C108.939 119.98 108.672 119.987 108.419 120C108.166 120.027 107.906 120.047 107.639 120.06C107.386 120.087 107.092 120.1 106.759 120.1ZM117.846 120.06C117.74 120.06 117.646 120.04 117.566 120C117.486 119.973 117.446 119.913 117.446 119.82C117.446 119.727 117.486 119.653 117.566 119.6C117.66 119.547 117.773 119.5 117.906 119.46C118.093 119.393 118.273 119.32 118.446 119.24C118.633 119.147 118.726 118.967 118.726 118.7V114.3C118.726 113.967 118.686 113.68 118.606 113.44C118.526 113.187 118.333 113.033 118.026 112.98C117.973 112.967 117.926 112.94 117.886 112.9C117.846 112.86 117.826 112.793 117.826 112.7C117.826 112.54 117.886 112.447 118.006 112.42C118.353 112.327 118.66 112.227 118.926 112.12C119.193 112.013 119.44 111.9 119.666 111.78C119.893 111.647 120.133 111.507 120.386 111.36C120.413 111.347 120.44 111.333 120.466 111.32C120.506 111.293 120.546 111.28 120.586 111.28C120.68 111.28 120.726 111.333 120.726 111.44C120.726 111.547 120.706 111.74 120.666 112.02C120.64 112.287 120.626 112.513 120.626 112.7C120.626 112.833 120.64 112.913 120.666 112.94H120.706C121.04 112.607 121.453 112.3 121.946 112.02C122.453 111.74 123.06 111.6 123.766 111.6C124.22 111.6 124.613 111.72 124.946 111.96C125.28 112.187 125.546 112.547 125.746 113.04H125.806C126.22 112.613 126.693 112.267 127.226 112C127.76 111.733 128.346 111.6 128.986 111.6C129.426 111.6 129.8 111.727 130.106 111.98C130.413 112.233 130.646 112.573 130.806 113C130.98 113.427 131.066 113.893 131.066 114.4V118.72C131.066 118.987 131.153 119.16 131.326 119.24C131.5 119.32 131.686 119.393 131.886 119.46C132.02 119.5 132.126 119.547 132.206 119.6C132.286 119.653 132.326 119.727 132.326 119.82C132.326 119.9 132.293 119.96 132.226 120C132.173 120.04 132.08 120.06 131.946 120.06C131.68 120.06 131.46 120.047 131.286 120.02C131.113 120.007 130.946 119.993 130.786 119.98C130.626 119.967 130.426 119.96 130.186 119.96C129.96 119.96 129.76 119.967 129.586 119.98C129.426 119.993 129.26 120.007 129.086 120.02C128.913 120.047 128.693 120.06 128.426 120.06C128.32 120.06 128.226 120.04 128.146 120C128.08 119.96 128.046 119.9 128.046 119.82C128.046 119.713 128.086 119.64 128.166 119.6C128.246 119.547 128.353 119.5 128.486 119.46C128.686 119.407 128.86 119.34 129.006 119.26C129.153 119.167 129.226 119 129.226 118.76V114.58C129.226 114.26 129.16 113.967 129.026 113.7C128.906 113.42 128.74 113.2 128.526 113.04C128.313 112.867 128.073 112.78 127.806 112.78C127.526 112.78 127.26 112.82 127.006 112.9C126.753 112.98 126.506 113.113 126.266 113.3C125.96 113.54 125.806 113.947 125.806 114.52V118.72C125.806 118.987 125.886 119.167 126.046 119.26C126.22 119.34 126.406 119.407 126.606 119.46C126.726 119.5 126.826 119.547 126.906 119.6C127 119.653 127.046 119.727 127.046 119.82C127.046 119.9 127.013 119.96 126.946 120C126.88 120.04 126.786 120.06 126.666 120.06C126.4 120.06 126.18 120.047 126.006 120.02C125.833 120.007 125.666 119.993 125.506 119.98C125.346 119.967 125.146 119.96 124.906 119.96C124.68 119.96 124.48 119.967 124.306 119.98C124.146 119.993 123.98 120.007 123.806 120.02C123.633 120.047 123.413 120.06 123.146 120.06C123.053 120.06 122.966 120.04 122.886 120C122.806 119.96 122.766 119.9 122.766 119.82C122.766 119.713 122.813 119.64 122.906 119.6C123 119.547 123.1 119.5 123.206 119.46C123.406 119.407 123.58 119.34 123.726 119.26C123.886 119.167 123.966 119 123.966 118.76V114.58C123.966 114.26 123.9 113.967 123.766 113.7C123.646 113.433 123.48 113.213 123.266 113.04C123.053 112.867 122.813 112.78 122.546 112.78C122.28 112.78 122.013 112.82 121.746 112.9C121.493 112.98 121.246 113.113 121.006 113.3C120.713 113.513 120.566 113.913 120.566 114.5V118.72C120.566 118.973 120.64 119.147 120.786 119.24C120.933 119.32 121.106 119.393 121.306 119.46C121.413 119.5 121.513 119.547 121.606 119.6C121.7 119.64 121.746 119.713 121.746 119.82C121.746 119.9 121.706 119.96 121.626 120C121.56 120.04 121.473 120.06 121.366 120.06C121.1 120.06 120.88 120.047 120.706 120.02C120.533 120.007 120.373 119.993 120.226 119.98C120.08 119.967 119.886 119.96 119.646 119.96C119.42 119.96 119.22 119.967 119.046 119.98C118.873 119.993 118.693 120.007 118.506 120.02C118.333 120.047 118.113 120.06 117.846 120.06ZM135.168 120.28C134.888 120.28 134.615 120.187 134.348 120C134.081 119.827 133.861 119.607 133.688 119.34C133.515 119.06 133.428 118.787 133.428 118.52C133.428 118.08 133.548 117.727 133.788 117.46C134.041 117.193 134.428 116.953 134.948 116.74L136.888 115.92C137.155 115.813 137.315 115.72 137.368 115.64C137.421 115.547 137.455 115.367 137.468 115.1L137.508 113.88C137.521 113.52 137.435 113.22 137.248 112.98C137.061 112.74 136.788 112.62 136.428 112.62C136.241 112.62 136.048 112.66 135.848 112.74C135.661 112.807 135.508 112.887 135.388 112.98C135.321 113.033 135.275 113.107 135.248 113.2C135.235 113.293 135.228 113.393 135.228 113.5C135.228 113.567 135.228 113.647 135.228 113.74C135.241 113.82 135.248 113.887 135.248 113.94C135.248 114.02 135.155 114.12 134.968 114.24C134.795 114.347 134.588 114.447 134.348 114.54C134.121 114.633 133.928 114.68 133.768 114.68C133.688 114.68 133.621 114.66 133.568 114.62C133.528 114.567 133.508 114.5 133.508 114.42C133.508 114.207 133.575 113.987 133.708 113.76C133.855 113.52 134.068 113.28 134.348 113.04C134.668 112.76 135.015 112.513 135.388 112.3C135.775 112.073 136.148 111.9 136.508 111.78C136.881 111.66 137.208 111.6 137.488 111.6C138.048 111.6 138.501 111.793 138.848 112.18C139.208 112.553 139.375 113.04 139.348 113.64L139.248 118.16C139.235 118.453 139.295 118.693 139.428 118.88C139.561 119.067 139.728 119.16 139.928 119.16C140.235 119.16 140.475 119.08 140.648 118.92C140.701 118.867 140.748 118.84 140.788 118.84C140.855 118.84 140.908 118.86 140.948 118.9C141.001 118.94 141.028 118.993 141.028 119.06C141.028 119.22 140.935 119.387 140.748 119.56C140.521 119.787 140.275 119.96 140.008 120.08C139.755 120.213 139.508 120.28 139.268 120.28C138.601 120.28 138.068 119.92 137.668 119.2H137.608C137.168 119.573 136.755 119.847 136.368 120.02C135.981 120.193 135.581 120.28 135.168 120.28ZM136.208 119.2C136.435 119.2 136.621 119.167 136.768 119.1C136.928 119.02 137.068 118.913 137.188 118.78C137.255 118.713 137.301 118.633 137.328 118.54C137.368 118.433 137.395 118.273 137.408 118.06L137.448 116.92C137.461 116.787 137.455 116.693 137.428 116.64C137.401 116.573 137.348 116.54 137.268 116.54C137.241 116.54 137.201 116.547 137.148 116.56C137.095 116.573 137.021 116.6 136.928 116.64C136.328 116.867 135.908 117.107 135.668 117.36C135.428 117.6 135.308 117.867 135.308 118.16C135.308 118.52 135.401 118.787 135.588 118.96C135.788 119.12 135.995 119.2 136.208 119.2ZM141.85 120.06C141.743 120.06 141.65 120.04 141.57 120C141.503 119.96 141.47 119.9 141.47 119.82C141.47 119.713 141.51 119.64 141.59 119.6C141.683 119.547 141.783 119.507 141.89 119.48C142.196 119.4 142.423 119.313 142.57 119.22C142.716 119.127 142.79 118.96 142.79 118.72V114.4C142.79 114 142.723 113.68 142.59 113.44C142.456 113.187 142.223 113.033 141.89 112.98C141.823 112.967 141.77 112.94 141.73 112.9C141.703 112.847 141.69 112.773 141.69 112.68C141.69 112.52 141.75 112.433 141.87 112.42C142.456 112.287 142.956 112.113 143.37 111.9C143.796 111.673 144.116 111.493 144.33 111.36C144.476 111.267 144.583 111.22 144.65 111.22C144.756 111.22 144.81 111.273 144.81 111.38C144.81 111.527 144.79 111.76 144.75 112.08C144.723 112.4 144.69 112.747 144.65 113.12C144.623 113.493 144.61 113.84 144.61 114.16V118.72C144.61 118.933 144.683 119.093 144.83 119.2C144.976 119.307 145.203 119.4 145.51 119.48C145.616 119.507 145.71 119.547 145.79 119.6C145.883 119.64 145.93 119.713 145.93 119.82C145.93 119.98 145.81 120.06 145.57 120.06C145.316 120.06 145.09 120.047 144.89 120.02C144.69 120.007 144.496 119.993 144.31 119.98C144.136 119.967 143.93 119.96 143.69 119.96C143.463 119.96 143.256 119.967 143.07 119.98C142.883 119.993 142.696 120.007 142.51 120.02C142.336 120.047 142.116 120.06 141.85 120.06ZM143.65 109.84C143.316 109.84 143.03 109.727 142.79 109.5C142.563 109.26 142.45 108.973 142.45 108.64C142.45 108.293 142.563 108.007 142.79 107.78C143.03 107.54 143.316 107.42 143.65 107.42C143.996 107.42 144.29 107.54 144.53 107.78C144.77 108.007 144.89 108.293 144.89 108.64C144.89 108.973 144.77 109.26 144.53 109.5C144.29 109.727 143.996 109.84 143.65 109.84ZM147.024 120.06C146.93 120.06 146.837 120.047 146.744 120.02C146.664 119.993 146.624 119.933 146.624 119.84C146.624 119.733 146.67 119.66 146.764 119.62C146.857 119.567 146.964 119.513 147.084 119.46C147.284 119.393 147.47 119.32 147.644 119.24C147.817 119.16 147.904 118.98 147.904 118.7V108.8C147.904 108.413 147.837 108.093 147.704 107.84C147.584 107.573 147.357 107.407 147.024 107.34C146.917 107.313 146.864 107.22 146.864 107.06C146.864 106.913 146.91 106.827 147.004 106.8C147.35 106.733 147.677 106.647 147.984 106.54C148.29 106.433 148.577 106.327 148.844 106.22C149.11 106.113 149.35 106.02 149.564 105.94C149.644 105.913 149.704 105.9 149.744 105.9C149.784 105.9 149.81 105.92 149.824 105.96C149.85 106 149.864 106.04 149.864 106.08C149.864 106.187 149.844 106.413 149.804 106.76C149.764 107.107 149.744 107.627 149.744 108.32V118.7C149.744 118.967 149.83 119.147 150.004 119.24C150.177 119.32 150.364 119.393 150.564 119.46C150.684 119.5 150.79 119.547 150.884 119.6C150.977 119.653 151.024 119.733 151.024 119.84C151.024 119.92 150.977 119.973 150.884 120C150.804 120.027 150.717 120.04 150.624 120.04C150.37 120.04 150.15 120.033 149.964 120.02C149.777 120.007 149.597 119.993 149.424 119.98C149.25 119.967 149.044 119.96 148.804 119.96C148.577 119.96 148.377 119.967 148.204 119.98C148.03 119.993 147.857 120.007 147.684 120.02C147.51 120.047 147.29 120.06 147.024 120.06Z" fill="#49365F" fill-opacity="0.64"/>
<path d="M107.323 54.08C107.176 54.08 107.056 54.06 106.963 54.02C106.87 53.9933 106.823 53.9333 106.823 53.84C106.823 53.6667 107.016 53.54 107.403 53.46C107.91 53.3667 108.236 53.22 108.383 53.02C108.543 52.82 108.623 52.4933 108.623 52.04V42.98C108.623 42.5267 108.563 42.2067 108.443 42.02C108.323 41.8333 108.01 41.6867 107.503 41.58C107.116 41.5 106.923 41.3667 106.923 41.18C106.923 41.0867 106.97 41.02 107.063 40.98C107.156 40.94 107.276 40.92 107.423 40.92C107.77 40.92 108.063 40.9267 108.303 40.94C108.556 40.9533 108.796 40.9667 109.023 40.98C109.25 40.9933 109.496 41 109.763 41C110.043 41 110.296 41 110.523 41C110.763 40.9867 111.01 40.9733 111.263 40.96C111.53 40.9467 111.83 40.94 112.163 40.94C112.323 40.94 112.443 40.96 112.523 41C112.616 41.0267 112.663 41.0867 112.663 41.18C112.663 41.2867 112.616 41.3733 112.523 41.44C112.43 41.4933 112.29 41.54 112.103 41.58C111.583 41.7 111.223 41.8667 111.023 42.08C110.836 42.2933 110.743 42.5933 110.743 42.98V50.28C110.743 50.44 110.763 50.5333 110.803 50.56C110.843 50.5867 110.91 50.56 111.003 50.48L118.043 43.24C118.163 43.1333 118.223 43.0133 118.223 42.88V42.76C118.21 42.4267 118.096 42.1733 117.883 42C117.683 41.8133 117.356 41.6733 116.903 41.58C116.516 41.5 116.323 41.3667 116.323 41.18C116.323 41.0867 116.37 41.02 116.463 40.98C116.57 40.94 116.696 40.92 116.843 40.92C117.19 40.92 117.496 40.9267 117.763 40.94C118.043 40.9533 118.31 40.9667 118.563 40.98C118.816 40.9933 119.083 41 119.363 41C119.616 41 119.843 41 120.043 41C120.256 40.9867 120.483 40.9733 120.723 40.96C120.963 40.9467 121.25 40.94 121.583 40.94C121.743 40.94 121.863 40.96 121.943 41C122.036 41.0267 122.083 41.0867 122.083 41.18C122.083 41.2867 122.036 41.3733 121.943 41.44C121.85 41.4933 121.703 41.54 121.503 41.58C120.996 41.7 120.676 41.8667 120.543 42.08C120.41 42.28 120.343 42.58 120.343 42.98V52.02C120.343 52.4733 120.416 52.8 120.563 53C120.71 53.2 121.036 53.3533 121.543 53.46C121.73 53.5 121.87 53.5467 121.963 53.6C122.07 53.6533 122.123 53.7333 122.123 53.84C122.123 53.92 122.076 53.98 121.983 54.02C121.89 54.06 121.763 54.08 121.603 54.08C121.27 54.08 120.97 54.0667 120.703 54.04C120.45 54.0267 120.203 54.0133 119.963 54C119.736 53.9867 119.483 53.98 119.203 53.98C118.936 53.98 118.683 53.9867 118.443 54C118.216 54.0133 117.97 54.0267 117.703 54.04C117.45 54.0667 117.156 54.08 116.823 54.08C116.676 54.08 116.55 54.06 116.443 54.02C116.35 53.9933 116.303 53.9333 116.303 53.84C116.303 53.6667 116.496 53.54 116.883 53.46C117.336 53.38 117.67 53.2533 117.883 53.08C118.11 52.9067 118.223 52.6267 118.223 52.24V44.64C118.223 44.44 118.156 44.4 118.023 44.52L110.943 51.78C110.863 51.8733 110.81 51.94 110.783 51.98C110.77 52.02 110.763 52.1 110.763 52.22C110.763 52.62 110.89 52.9067 111.143 53.08C111.41 53.24 111.776 53.3667 112.243 53.46C112.443 53.5 112.59 53.5467 112.683 53.6C112.776 53.6533 112.823 53.7333 112.823 53.84C112.823 53.92 112.776 53.98 112.683 54.02C112.603 54.06 112.483 54.08 112.323 54.08C111.99 54.08 111.683 54.0667 111.403 54.04C111.123 54.0267 110.85 54.0133 110.583 54C110.33 53.9867 110.056 53.98 109.763 53.98C109.483 53.98 109.223 53.9867 108.983 54C108.743 54.0133 108.49 54.0267 108.223 54.04C107.97 54.0667 107.67 54.08 107.323 54.08ZM128.574 54.3C128.387 54.3 128.234 54.1733 128.114 53.92L125.514 48.14C125.461 48.0467 125.414 48.0067 125.374 48.02C125.347 48.02 125.321 48.0733 125.294 48.18C125.281 48.2733 125.261 48.4733 125.234 48.78C125.207 49.0733 125.181 49.42 125.154 49.82C125.127 50.2067 125.101 50.6 125.074 51C125.047 51.4 125.027 51.7533 125.014 52.06C125.001 52.3667 124.994 52.5667 124.994 52.66C124.994 52.9667 125.067 53.1667 125.214 53.26C125.374 53.3533 125.587 53.44 125.854 53.52C125.947 53.5467 126.041 53.5867 126.134 53.64C126.241 53.68 126.294 53.7533 126.294 53.86C126.294 53.94 126.247 53.9867 126.154 54C126.061 54.0267 125.981 54.04 125.914 54.04C125.647 54.04 125.447 54.0333 125.314 54.02C125.181 54.0067 125.054 53.9933 124.934 53.98C124.814 53.9667 124.641 53.96 124.414 53.96C124.187 53.96 124.001 53.9667 123.854 53.98C123.721 53.9933 123.594 54.0067 123.474 54.02C123.367 54.0333 123.227 54.04 123.054 54.04C122.974 54.04 122.887 54.0267 122.794 54C122.714 53.9733 122.674 53.92 122.674 53.84C122.674 53.7467 122.727 53.68 122.834 53.64C122.954 53.6 123.061 53.56 123.154 53.52C123.367 53.44 123.561 53.3533 123.734 53.26C123.921 53.1533 124.027 52.9667 124.054 52.7L124.634 47.48C124.661 47.12 124.587 46.8533 124.414 46.68C124.241 46.4933 124.001 46.3667 123.694 46.3C123.574 46.2733 123.461 46.2333 123.354 46.18C123.261 46.1133 123.214 46.0333 123.214 45.94C123.214 45.86 123.261 45.8133 123.354 45.8C123.461 45.7733 123.547 45.76 123.614 45.76C123.721 45.76 123.867 45.7667 124.054 45.78C124.241 45.7933 124.427 45.8067 124.614 45.82C124.814 45.8333 124.974 45.84 125.094 45.84C125.187 45.84 125.327 45.84 125.514 45.84C125.701 45.8267 125.861 45.82 125.994 45.82C126.061 45.82 126.121 45.8533 126.174 45.92C126.227 45.9733 126.261 46.02 126.274 46.06L128.934 51.5C128.987 51.62 129.034 51.6867 129.074 51.7C129.127 51.7 129.181 51.6467 129.234 51.54L131.294 46.96C131.387 46.72 131.481 46.48 131.574 46.24C131.667 46 131.761 45.88 131.854 45.88H132.514C132.874 45.88 133.234 45.86 133.594 45.82C133.967 45.78 134.214 45.76 134.334 45.76C134.427 45.76 134.514 45.7733 134.594 45.8C134.687 45.8267 134.734 45.88 134.734 45.96C134.734 46.0533 134.687 46.1267 134.594 46.18C134.501 46.22 134.407 46.2533 134.314 46.28C134.074 46.3467 133.854 46.4533 133.654 46.6C133.454 46.7467 133.361 46.9733 133.374 47.28C133.387 47.8533 133.401 48.36 133.414 48.8C133.441 49.2267 133.467 49.6333 133.494 50.02C133.521 50.4067 133.547 50.8133 133.574 51.24C133.614 51.6667 133.647 52.16 133.674 52.72C133.687 52.9733 133.787 53.1533 133.974 53.26C134.174 53.3533 134.381 53.44 134.594 53.52C134.687 53.5467 134.781 53.5867 134.874 53.64C134.967 53.68 135.014 53.7533 135.014 53.86C135.014 53.94 134.967 53.9867 134.874 54C134.794 54.0267 134.721 54.04 134.654 54.04C134.414 54.04 134.187 54.0333 133.974 54.02C133.774 54.0067 133.574 53.9933 133.374 53.98C133.187 53.9667 132.981 53.96 132.754 53.96C132.527 53.96 132.321 53.9667 132.134 53.98C131.947 53.9933 131.754 54.0067 131.554 54.02C131.367 54.0333 131.147 54.04 130.894 54.04C130.827 54.04 130.747 54.0267 130.654 54C130.574 53.9867 130.534 53.94 130.534 53.86C130.534 53.7533 130.574 53.68 130.654 53.64C130.747 53.5867 130.841 53.5467 130.934 53.52C131.201 53.44 131.414 53.36 131.574 53.28C131.734 53.1867 131.814 53.0067 131.814 52.74C131.801 52.2067 131.781 51.5333 131.754 50.72C131.727 49.9067 131.687 49.08 131.634 48.24C131.634 48.12 131.607 48.0733 131.554 48.1C131.514 48.1133 131.467 48.1733 131.414 48.28L128.954 53.94C128.847 54.18 128.721 54.3 128.574 54.3ZM136.366 54.22C136.006 54.22 135.679 54.1733 135.386 54.08C135.106 53.9867 134.966 53.8867 134.966 53.78C134.966 53.5533 135.086 53.44 135.326 53.44C135.659 53.44 135.953 53.3333 136.206 53.12C136.473 52.9067 136.719 52.6333 136.946 52.3C137.186 51.9667 137.413 51.6467 137.626 51.34C137.866 50.9933 138.059 50.7333 138.206 50.56C138.353 50.3867 138.513 50.2533 138.686 50.16C138.846 50.0667 138.866 50.0067 138.746 49.98C138.199 49.8467 137.766 49.6333 137.446 49.34C137.126 49.0467 136.966 48.6067 136.966 48.02C136.966 47.5533 137.113 47.1533 137.406 46.82C137.713 46.4867 138.113 46.24 138.606 46.08C139.099 45.9067 139.633 45.82 140.206 45.82C140.446 45.82 140.673 45.8267 140.886 45.84C141.099 45.8533 141.306 45.8667 141.506 45.88C141.719 45.88 141.946 45.88 142.186 45.88C142.439 45.88 142.633 45.88 142.766 45.88C142.899 45.8667 143.039 45.8533 143.186 45.84C143.346 45.8267 143.566 45.82 143.846 45.82C143.913 45.82 143.993 45.8333 144.086 45.86C144.193 45.8867 144.246 45.94 144.246 46.02C144.246 46.1 144.206 46.1667 144.126 46.22C144.046 46.2733 143.953 46.3133 143.846 46.34C143.606 46.4067 143.413 46.5 143.266 46.62C143.133 46.7267 143.066 46.9333 143.066 47.24V52.8C143.066 53.08 143.146 53.2533 143.306 53.32C143.479 53.3733 143.686 53.44 143.926 53.52C144.019 53.56 144.106 53.6067 144.186 53.66C144.279 53.7 144.326 53.7667 144.326 53.86C144.326 53.94 144.273 53.9933 144.166 54.02C144.059 54.0467 143.979 54.06 143.926 54.06C143.699 54.06 143.486 54.0467 143.286 54.02C143.099 54.0067 142.919 54 142.746 54C142.573 53.9867 142.373 53.98 142.146 53.98C141.906 53.98 141.699 53.9867 141.526 54C141.353 54 141.173 54.0067 140.986 54.02C140.813 54.0467 140.586 54.06 140.306 54.06C140.239 54.06 140.153 54.0467 140.046 54.02C139.939 53.9933 139.886 53.94 139.886 53.86C139.886 53.7533 139.926 53.6733 140.006 53.62C140.099 53.5667 140.199 53.52 140.306 53.48C140.559 53.4 140.773 53.32 140.946 53.24C141.133 53.16 141.226 52.9867 141.226 52.72V50.48C141.226 50.3467 141.166 50.28 141.046 50.28C140.913 50.2667 140.799 50.26 140.706 50.26C140.613 50.26 140.526 50.2733 140.446 50.3C140.286 50.3267 140.139 50.44 140.006 50.64C139.873 50.84 139.653 51.2067 139.346 51.74C139.053 52.2333 138.753 52.6667 138.446 53.04C138.139 53.4133 137.813 53.7067 137.466 53.92C137.133 54.12 136.766 54.22 136.366 54.22ZM140.346 49.66C140.626 49.66 140.839 49.6333 140.986 49.58C141.146 49.5267 141.226 49.4333 141.226 49.3V47.12C141.226 46.8533 141.153 46.6733 141.006 46.58C140.859 46.4867 140.606 46.44 140.246 46.44C139.859 46.44 139.533 46.5733 139.266 46.84C138.999 47.1067 138.866 47.4867 138.866 47.98C138.866 48.42 138.993 48.8133 139.246 49.16C139.513 49.4933 139.879 49.66 140.346 49.66Z" fill="#49365F" fill-opacity="0.64"/>
<path d="M106 136L712 136" stroke="black" stroke-opacity="0.64"/>
<path d="M107 72L711 72.0001" stroke="black" stroke-opacity="0.64"/>
<path d="M742 104.798V88.9674L775.743 84.3989L742 79.8304V64L789.24 84.3989L742 104.798Z" fill="#49365F"/>
</svg>
