<svg width="819" height="131" viewBox="0 0 819 131" fill="none" xmlns="http://www.w3.org/2000/svg">
<path d="M251.15 122.216C250.446 122.216 249.766 122.128 249.11 121.952C248.454 121.776 247.862 121.528 247.334 121.208C246.806 120.888 246.382 120.544 246.062 120.176C245.87 119.952 245.782 119.712 245.798 119.456C245.83 119.184 245.974 118.96 246.23 118.784C246.422 118.656 246.654 118.616 246.926 118.664C247.214 118.712 247.454 118.832 247.646 119.024C248.03 119.408 248.518 119.736 249.11 120.008C249.718 120.264 250.39 120.392 251.126 120.392C252.07 120.392 252.83 120.192 253.406 119.792C253.982 119.392 254.27 118.848 254.27 118.16C254.27 117.552 254.046 117.056 253.598 116.672C253.15 116.272 252.598 116.056 251.942 116.024H250.67C250.35 116.024 250.086 115.944 249.878 115.784C249.686 115.624 249.59 115.424 249.59 115.184C249.59 114.944 249.686 114.752 249.878 114.608C250.086 114.448 250.35 114.368 250.67 114.368H251.942C252.518 114.336 252.974 114.144 253.31 113.792C253.646 113.424 253.814 112.968 253.814 112.424C253.814 111.864 253.566 111.416 253.07 111.08C252.59 110.728 251.926 110.552 251.078 110.552C250.326 110.552 249.678 110.672 249.134 110.912C248.59 111.136 248.15 111.448 247.814 111.848C247.622 112.056 247.398 112.176 247.142 112.208C246.886 112.24 246.646 112.184 246.422 112.04C246.214 111.912 246.102 111.72 246.086 111.464C246.086 111.192 246.182 110.944 246.374 110.72C246.886 110.144 247.542 109.664 248.342 109.28C249.158 108.896 250.054 108.704 251.03 108.704C251.958 108.704 252.774 108.864 253.478 109.184C254.198 109.504 254.758 109.936 255.158 110.48C255.574 111.024 255.782 111.624 255.782 112.28C255.782 112.824 255.638 113.312 255.35 113.744C255.078 114.176 254.702 114.528 254.222 114.8C253.742 115.056 253.214 115.2 252.638 115.232V114.992C253.31 114.992 253.918 115.136 254.462 115.424C255.006 115.712 255.438 116.104 255.758 116.6C256.078 117.08 256.238 117.624 256.238 118.232C256.238 118.984 256.014 119.664 255.566 120.272C255.134 120.864 254.534 121.336 253.766 121.688C252.998 122.04 252.126 122.216 251.15 122.216ZM265.036 122.12C263.82 122.12 262.732 121.832 261.772 121.256C260.812 120.664 260.052 119.864 259.492 118.856C258.932 117.848 258.652 116.712 258.652 115.448C258.652 114.168 258.94 113.024 259.516 112.016C260.108 111.008 260.908 110.216 261.916 109.64C262.924 109.048 264.06 108.752 265.324 108.752C266.572 108.752 267.692 109.048 268.684 109.64C269.692 110.216 270.484 111.008 271.06 112.016C271.652 113.024 271.956 114.168 271.972 115.448L271.156 115.856C271.156 117.04 270.884 118.104 270.34 119.048C269.812 119.992 269.084 120.744 268.156 121.304C267.244 121.848 266.204 122.12 265.036 122.12ZM265.324 120.296C266.22 120.296 267.012 120.088 267.7 119.672C268.404 119.24 268.956 118.656 269.356 117.92C269.772 117.184 269.98 116.36 269.98 115.448C269.98 114.52 269.772 113.696 269.356 112.976C268.956 112.24 268.404 111.656 267.7 111.224C267.012 110.792 266.22 110.576 265.324 110.576C264.444 110.576 263.644 110.792 262.924 111.224C262.22 111.656 261.66 112.24 261.244 112.976C260.828 113.696 260.62 114.52 260.62 115.448C260.62 116.36 260.828 117.184 261.244 117.92C261.66 118.656 262.22 119.24 262.924 119.672C263.644 120.088 264.444 120.296 265.324 120.296ZM270.94 122C270.652 122 270.404 121.912 270.196 121.736C270.004 121.544 269.908 121.296 269.908 120.992V117.032L270.364 114.944L271.972 115.448V120.992C271.972 121.296 271.876 121.544 271.684 121.736C271.492 121.912 271.244 122 270.94 122ZM293.806 122C293.502 122 293.254 121.904 293.062 121.712C292.87 121.52 292.773 121.28 292.773 120.992V114.872C292.773 113.896 292.59 113.104 292.222 112.496C291.87 111.872 291.382 111.408 290.758 111.104C290.134 110.784 289.422 110.624 288.622 110.624C287.87 110.624 287.19 110.776 286.582 111.08C285.99 111.368 285.518 111.768 285.166 112.28C284.814 112.776 284.638 113.352 284.638 114.008H283.246C283.278 113 283.542 112.104 284.038 111.32C284.55 110.52 285.23 109.888 286.078 109.424C286.926 108.96 287.87 108.728 288.91 108.728C290.03 108.728 291.03 108.968 291.91 109.448C292.806 109.912 293.51 110.6 294.022 111.512C294.55 112.424 294.814 113.544 294.814 114.872V120.992C294.814 121.28 294.718 121.52 294.526 121.712C294.334 121.904 294.094 122 293.806 122ZM283.63 122C283.31 122 283.054 121.912 282.862 121.736C282.686 121.544 282.598 121.296 282.598 120.992V109.904C282.598 109.584 282.686 109.336 282.862 109.16C283.054 108.968 283.31 108.872 283.63 108.872C283.934 108.872 284.174 108.968 284.35 109.16C284.542 109.336 284.638 109.584 284.638 109.904V120.992C284.638 121.296 284.542 121.544 284.35 121.736C284.174 121.912 283.934 122 283.63 122ZM304.863 122.12C303.567 122.12 302.415 121.832 301.407 121.256C300.415 120.68 299.631 119.888 299.055 118.88C298.479 117.872 298.191 116.728 298.191 115.448C298.191 114.152 298.479 113 299.055 111.992C299.631 110.984 300.415 110.192 301.407 109.616C302.415 109.04 303.567 108.752 304.863 108.752C306.143 108.752 307.279 109.04 308.271 109.616C309.263 110.192 310.047 110.984 310.623 111.992C311.199 113 311.495 114.152 311.511 115.448C311.511 116.728 311.223 117.872 310.647 118.88C310.071 119.888 309.279 120.68 308.271 121.256C307.279 121.832 306.143 122.12 304.863 122.12ZM304.863 120.296C305.759 120.296 306.559 120.088 307.263 119.672C307.967 119.24 308.519 118.664 308.919 117.944C309.319 117.208 309.519 116.376 309.519 115.448C309.519 114.52 309.319 113.688 308.919 112.952C308.519 112.216 307.967 111.64 307.263 111.224C306.559 110.792 305.759 110.576 304.863 110.576C303.967 110.576 303.159 110.792 302.439 111.224C301.735 111.64 301.175 112.216 300.759 112.952C300.359 113.688 300.159 114.52 300.159 115.448C300.159 116.376 300.359 117.208 300.759 117.944C301.175 118.664 301.735 119.24 302.439 119.672C303.159 120.088 303.967 120.296 304.863 120.296ZM320.793 122.12C319.545 122.12 318.441 121.84 317.481 121.28C316.521 120.704 315.769 119.912 315.225 118.904C314.681 117.896 314.409 116.744 314.409 115.448C314.409 114.136 314.697 112.976 315.273 111.968C315.849 110.96 316.633 110.176 317.625 109.616C318.633 109.04 319.785 108.752 321.081 108.752C322.361 108.752 323.497 109.04 324.489 109.616C325.497 110.176 326.281 110.96 326.841 111.968C327.417 112.976 327.713 114.136 327.729 115.448L326.529 115.856C326.529 117.072 326.281 118.152 325.785 119.096C325.305 120.04 324.633 120.784 323.769 121.328C322.905 121.856 321.913 122.12 320.793 122.12ZM321.081 127.256C319.865 127.256 318.769 127.024 317.793 126.56C316.833 126.096 316.025 125.448 315.369 124.616C315.193 124.408 315.121 124.176 315.153 123.92C315.185 123.68 315.313 123.488 315.537 123.344C315.777 123.184 316.033 123.128 316.305 123.176C316.577 123.224 316.793 123.36 316.953 123.584C317.401 124.144 317.977 124.592 318.681 124.928C319.385 125.264 320.201 125.432 321.129 125.432C321.977 125.432 322.753 125.224 323.457 124.808C324.161 124.408 324.713 123.824 325.113 123.056C325.529 122.288 325.737 121.376 325.737 120.32V116.768L326.457 115.136L327.729 115.448V120.44C327.729 121.72 327.441 122.872 326.865 123.896C326.289 124.936 325.505 125.752 324.513 126.344C323.521 126.952 322.377 127.256 321.081 127.256ZM321.081 120.296C321.993 120.296 322.793 120.088 323.481 119.672C324.185 119.256 324.737 118.688 325.137 117.968C325.537 117.232 325.737 116.392 325.737 115.448C325.737 114.504 325.537 113.664 325.137 112.928C324.737 112.192 324.185 111.616 323.481 111.2C322.793 110.784 321.993 110.576 321.081 110.576C320.169 110.576 319.361 110.784 318.657 111.2C317.953 111.616 317.393 112.192 316.977 112.928C316.577 113.664 316.377 114.504 316.377 115.448C316.377 116.392 316.577 117.232 316.977 117.968C317.393 118.688 317.953 119.256 318.657 119.672C319.361 120.088 320.169 120.296 321.081 120.296ZM342.532 122C342.228 122 341.98 121.904 341.788 121.712C341.596 121.52 341.5 121.28 341.5 120.992V114.872C341.5 113.896 341.316 113.104 340.948 112.496C340.596 111.872 340.108 111.408 339.484 111.104C338.86 110.784 338.148 110.624 337.348 110.624C336.596 110.624 335.916 110.776 335.308 111.08C334.716 111.368 334.244 111.768 333.892 112.28C333.54 112.776 333.364 113.352 333.364 114.008H331.972C332.004 113 332.268 112.104 332.764 111.32C333.276 110.52 333.956 109.888 334.804 109.424C335.652 108.96 336.596 108.728 337.636 108.728C338.756 108.728 339.756 108.968 340.636 109.448C341.532 109.912 342.236 110.6 342.748 111.512C343.276 112.424 343.54 113.544 343.54 114.872V120.992C343.54 121.28 343.444 121.52 343.252 121.712C343.06 121.904 342.82 122 342.532 122ZM332.356 122C332.036 122 331.78 121.912 331.588 121.736C331.412 121.544 331.324 121.296 331.324 120.992V109.904C331.324 109.584 331.412 109.336 331.588 109.16C331.78 108.968 332.036 108.872 332.356 108.872C332.66 108.872 332.9 108.968 333.076 109.16C333.268 109.336 333.364 109.584 333.364 109.904V120.992C333.364 121.296 333.268 121.544 333.076 121.736C332.9 121.912 332.66 122 332.356 122ZM353.277 122.144C352.141 122.144 351.125 121.912 350.229 121.448C349.349 120.968 348.653 120.272 348.141 119.36C347.629 118.448 347.373 117.328 347.373 116V109.88C347.373 109.592 347.469 109.352 347.661 109.16C347.853 108.968 348.093 108.872 348.381 108.872C348.669 108.872 348.909 108.968 349.101 109.16C349.293 109.352 349.389 109.592 349.389 109.88V116C349.389 116.976 349.573 117.776 349.941 118.4C350.309 119.008 350.805 119.472 351.429 119.792C352.053 120.096 352.757 120.248 353.541 120.248C354.293 120.248 354.973 120.104 355.581 119.816C356.189 119.512 356.669 119.112 357.021 118.616C357.373 118.104 357.549 117.52 357.549 116.864H358.917C358.885 117.872 358.621 118.776 358.125 119.576C357.629 120.36 356.957 120.984 356.109 121.448C355.261 121.912 354.317 122.144 353.277 122.144ZM358.557 122C358.253 122 358.005 121.912 357.813 121.736C357.637 121.544 357.549 121.288 357.549 120.968V109.88C357.549 109.576 357.637 109.336 357.813 109.16C358.005 108.968 358.253 108.872 358.557 108.872C358.861 108.872 359.109 108.968 359.301 109.16C359.493 109.336 359.589 109.576 359.589 109.88V120.968C359.589 121.288 359.493 121.544 359.301 121.736C359.109 121.912 358.861 122 358.557 122ZM369.782 122.12C368.518 122.12 367.39 121.832 366.398 121.256C365.406 120.664 364.622 119.864 364.046 118.856C363.486 117.848 363.206 116.712 363.206 115.448C363.206 114.168 363.478 113.024 364.022 112.016C364.582 111.008 365.334 110.216 366.278 109.64C367.238 109.048 368.342 108.752 369.59 108.752C370.55 108.752 371.438 108.944 372.254 109.328C373.07 109.696 373.79 110.256 374.414 111.008C374.606 111.232 374.67 111.464 374.606 111.704C374.558 111.928 374.414 112.128 374.174 112.304C373.982 112.432 373.766 112.48 373.526 112.448C373.302 112.4 373.094 112.272 372.902 112.064C372.022 111.072 370.918 110.576 369.59 110.576C368.71 110.576 367.934 110.784 367.262 111.2C366.606 111.616 366.094 112.192 365.726 112.928C365.358 113.648 365.174 114.488 365.174 115.448C365.174 116.376 365.366 117.208 365.75 117.944C366.15 118.664 366.694 119.24 367.382 119.672C368.086 120.088 368.886 120.296 369.782 120.296C370.39 120.296 370.934 120.216 371.414 120.056C371.91 119.896 372.35 119.648 372.734 119.312C372.958 119.136 373.182 119.04 373.406 119.024C373.63 119.008 373.838 119.072 374.03 119.216C374.238 119.408 374.358 119.624 374.39 119.864C374.422 120.104 374.342 120.32 374.15 120.512C372.982 121.584 371.526 122.12 369.782 122.12ZM388.567 121.736C388.391 121.912 388.151 122 387.847 122C387.559 122 387.327 121.904 387.151 121.712L381.367 115.424L386.863 109.184C387.039 108.992 387.271 108.888 387.559 108.872C387.847 108.856 388.079 108.928 388.255 109.088C388.463 109.28 388.575 109.496 388.591 109.736C388.623 109.96 388.551 110.176 388.375 110.384L383.911 115.328L388.615 120.464C388.791 120.656 388.879 120.872 388.879 121.112C388.879 121.336 388.775 121.544 388.567 121.736ZM379.183 122C378.895 122 378.663 121.912 378.487 121.736C378.311 121.544 378.223 121.296 378.223 120.992V109.904C378.223 109.584 378.311 109.336 378.487 109.16C378.663 108.968 378.895 108.872 379.183 108.872C379.503 108.872 379.751 108.968 379.927 109.16C380.119 109.336 380.215 109.584 380.215 109.904V114.416H383.191V116.288H380.215V120.992C380.215 121.296 380.119 121.544 379.927 121.736C379.751 121.912 379.503 122 379.183 122ZM391.274 127.736C390.938 127.752 390.602 127.712 390.266 127.616C389.946 127.52 389.626 127.384 389.306 127.208C389.018 127.032 388.834 126.808 388.754 126.536C388.658 126.264 388.706 126.008 388.898 125.768C389.058 125.544 389.258 125.416 389.498 125.384C389.754 125.368 390.018 125.432 390.29 125.576C390.466 125.672 390.634 125.744 390.794 125.792C390.97 125.84 391.162 125.864 391.37 125.864C391.882 125.864 392.378 125.616 392.858 125.12C393.354 124.624 393.81 123.896 394.226 122.936L400.13 109.4C400.242 109.144 400.418 108.968 400.658 108.872C400.914 108.776 401.178 108.784 401.45 108.896C401.674 109.008 401.826 109.184 401.906 109.424C401.986 109.664 401.962 109.928 401.834 110.216L395.906 123.752C395.362 124.936 394.682 125.896 393.866 126.632C393.066 127.368 392.202 127.736 391.274 127.736ZM396.41 121.544C396.154 121.672 395.914 121.696 395.69 121.616C395.466 121.536 395.282 121.36 395.138 121.088L389.762 110.216C389.634 109.944 389.61 109.696 389.69 109.472C389.786 109.248 389.962 109.072 390.218 108.944C390.49 108.832 390.738 108.816 390.962 108.896C391.186 108.976 391.362 109.144 391.49 109.4L396.77 120.248C396.898 120.504 396.938 120.76 396.89 121.016C396.842 121.256 396.682 121.432 396.41 121.544ZM422.969 122C422.665 122 422.417 121.912 422.225 121.736C422.033 121.544 421.937 121.288 421.937 120.968V109.904C421.937 109.584 422.033 109.336 422.225 109.16C422.417 108.968 422.665 108.872 422.969 108.872C423.257 108.872 423.489 108.968 423.665 109.16C423.841 109.336 423.929 109.584 423.929 109.904V120.968C423.929 121.288 423.841 121.544 423.665 121.736C423.489 121.912 423.257 122 422.969 122ZM412.769 122C412.481 122 412.241 121.912 412.049 121.736C411.873 121.544 411.785 121.288 411.785 120.968V109.904C411.785 109.584 411.873 109.336 412.049 109.16C412.241 108.968 412.481 108.872 412.769 108.872C413.073 108.872 413.313 108.968 413.489 109.16C413.681 109.336 413.777 109.584 413.777 109.904V120.968C413.777 121.288 413.681 121.544 413.489 121.736C413.313 121.912 413.073 122 412.769 122ZM413.465 116.24V114.416H422.585V116.24H413.465ZM433.926 122.12C432.71 122.12 431.622 121.832 430.662 121.256C429.702 120.664 428.942 119.864 428.382 118.856C427.822 117.848 427.542 116.712 427.542 115.448C427.542 114.168 427.83 113.024 428.406 112.016C428.998 111.008 429.798 110.216 430.806 109.64C431.814 109.048 432.95 108.752 434.214 108.752C435.462 108.752 436.582 109.048 437.574 109.64C438.582 110.216 439.374 111.008 439.95 112.016C440.542 113.024 440.846 114.168 440.862 115.448L440.046 115.856C440.046 117.04 439.774 118.104 439.23 119.048C438.702 119.992 437.974 120.744 437.046 121.304C436.134 121.848 435.094 122.12 433.926 122.12ZM434.214 120.296C435.11 120.296 435.902 120.088 436.59 119.672C437.294 119.24 437.846 118.656 438.246 117.92C438.662 117.184 438.87 116.36 438.87 115.448C438.87 114.52 438.662 113.696 438.246 112.976C437.846 112.24 437.294 111.656 436.59 111.224C435.902 110.792 435.11 110.576 434.214 110.576C433.334 110.576 432.534 110.792 431.814 111.224C431.11 111.656 430.55 112.24 430.134 112.976C429.718 113.696 429.51 114.52 429.51 115.448C429.51 116.36 429.718 117.184 430.134 117.92C430.55 118.656 431.11 119.24 431.814 119.672C432.534 120.088 433.334 120.296 434.214 120.296ZM439.83 122C439.542 122 439.294 121.912 439.086 121.736C438.894 121.544 438.798 121.296 438.798 120.992V117.032L439.254 114.944L440.862 115.448V120.992C440.862 121.296 440.766 121.544 440.574 121.736C440.382 121.912 440.134 122 439.83 122ZM452.52 127.616C452.2 127.616 451.944 127.52 451.752 127.328C451.576 127.152 451.488 126.904 451.488 126.584V115.376C451.504 114.128 451.8 113.008 452.376 112.016C452.968 111.008 453.76 110.216 454.752 109.64C455.744 109.048 456.864 108.752 458.112 108.752C459.392 108.752 460.528 109.048 461.52 109.64C462.528 110.216 463.32 111.008 463.896 112.016C464.488 113.024 464.784 114.168 464.784 115.448C464.784 116.712 464.504 117.848 463.944 118.856C463.4 119.864 462.648 120.664 461.688 121.256C460.728 121.832 459.64 122.12 458.424 122.12C457.384 122.12 456.44 121.904 455.592 121.472C454.744 121.024 454.056 120.44 453.528 119.72V126.584C453.528 126.904 453.432 127.152 453.24 127.328C453.048 127.52 452.808 127.616 452.52 127.616ZM458.112 120.296C459.008 120.296 459.808 120.088 460.512 119.672C461.232 119.24 461.792 118.656 462.192 117.92C462.608 117.184 462.816 116.36 462.816 115.448C462.816 114.52 462.608 113.696 462.192 112.976C461.792 112.24 461.232 111.656 460.512 111.224C459.808 110.792 459.008 110.576 458.112 110.576C457.248 110.576 456.456 110.792 455.736 111.224C455.032 111.656 454.48 112.24 454.08 112.976C453.68 113.696 453.48 114.52 453.48 115.448C453.48 116.36 453.68 117.184 454.08 117.92C454.48 118.656 455.032 119.24 455.736 119.672C456.44 120.088 457.232 120.296 458.112 120.296ZM474.121 122.12C472.905 122.12 471.817 121.832 470.857 121.256C469.897 120.664 469.137 119.864 468.577 118.856C468.017 117.848 467.737 116.712 467.737 115.448C467.737 114.168 468.025 113.024 468.601 112.016C469.193 111.008 469.993 110.216 471.001 109.64C472.009 109.048 473.145 108.752 474.409 108.752C475.657 108.752 476.777 109.048 477.769 109.64C478.777 110.216 479.569 111.008 480.145 112.016C480.737 113.024 481.041 114.168 481.057 115.448L480.241 115.856C480.241 117.04 479.969 118.104 479.425 119.048C478.897 119.992 478.169 120.744 477.241 121.304C476.329 121.848 475.289 122.12 474.121 122.12ZM474.409 120.296C475.305 120.296 476.097 120.088 476.785 119.672C477.489 119.24 478.041 118.656 478.441 117.92C478.857 117.184 479.065 116.36 479.065 115.448C479.065 114.52 478.857 113.696 478.441 112.976C478.041 112.24 477.489 111.656 476.785 111.224C476.097 110.792 475.305 110.576 474.409 110.576C473.529 110.576 472.729 110.792 472.009 111.224C471.305 111.656 470.745 112.24 470.329 112.976C469.913 113.696 469.705 114.52 469.705 115.448C469.705 116.36 469.913 117.184 470.329 117.92C470.745 118.656 471.305 119.24 472.009 119.672C472.729 120.088 473.529 120.296 474.409 120.296ZM480.025 122C479.737 122 479.489 121.912 479.281 121.736C479.089 121.544 478.993 121.296 478.993 120.992V117.032L479.449 114.944L481.057 115.448V120.992C481.057 121.296 480.961 121.544 480.769 121.736C480.577 121.912 480.329 122 480.025 122ZM490.532 122.12C489.268 122.12 488.14 121.832 487.148 121.256C486.156 120.664 485.372 119.864 484.796 118.856C484.236 117.848 483.956 116.712 483.956 115.448C483.956 114.168 484.228 113.024 484.772 112.016C485.332 111.008 486.084 110.216 487.028 109.64C487.988 109.048 489.092 108.752 490.34 108.752C491.3 108.752 492.188 108.944 493.004 109.328C493.82 109.696 494.54 110.256 495.164 111.008C495.356 111.232 495.42 111.464 495.356 111.704C495.308 111.928 495.164 112.128 494.924 112.304C494.732 112.432 494.516 112.48 494.276 112.448C494.052 112.4 493.844 112.272 493.652 112.064C492.772 111.072 491.668 110.576 490.34 110.576C489.46 110.576 488.684 110.784 488.012 111.2C487.356 111.616 486.844 112.192 486.476 112.928C486.108 113.648 485.924 114.488 485.924 115.448C485.924 116.376 486.116 117.208 486.5 117.944C486.9 118.664 487.444 119.24 488.132 119.672C488.836 120.088 489.636 120.296 490.532 120.296C491.14 120.296 491.684 120.216 492.164 120.056C492.66 119.896 493.1 119.648 493.484 119.312C493.708 119.136 493.932 119.04 494.156 119.024C494.38 119.008 494.588 119.072 494.78 119.216C494.988 119.408 495.108 119.624 495.14 119.864C495.172 120.104 495.092 120.32 494.9 120.512C493.732 121.584 492.276 122.12 490.532 122.12ZM504.853 122.12C503.589 122.12 502.461 121.832 501.469 121.256C500.477 120.664 499.692 119.864 499.117 118.856C498.557 117.848 498.277 116.712 498.277 115.448C498.277 114.168 498.549 113.024 499.093 112.016C499.653 111.008 500.405 110.216 501.349 109.64C502.309 109.048 503.413 108.752 504.661 108.752C505.621 108.752 506.509 108.944 507.325 109.328C508.141 109.696 508.861 110.256 509.484 111.008C509.677 111.232 509.741 111.464 509.677 111.704C509.629 111.928 509.485 112.128 509.245 112.304C509.053 112.432 508.837 112.48 508.597 112.448C508.373 112.4 508.165 112.272 507.973 112.064C507.093 111.072 505.989 110.576 504.661 110.576C503.781 110.576 503.005 110.784 502.333 111.2C501.677 111.616 501.165 112.192 500.797 112.928C500.429 113.648 500.245 114.488 500.245 115.448C500.245 116.376 500.437 117.208 500.821 117.944C501.221 118.664 501.765 119.24 502.453 119.672C503.157 120.088 503.957 120.296 504.853 120.296C505.461 120.296 506.005 120.216 506.485 120.056C506.981 119.896 507.421 119.648 507.805 119.312C508.029 119.136 508.253 119.04 508.477 119.024C508.701 119.008 508.909 119.072 509.101 119.216C509.309 119.408 509.429 119.624 509.461 119.864C509.493 120.104 509.413 120.32 509.221 120.512C508.053 121.584 506.597 122.12 504.853 122.12ZM518.645 122.24C517.605 122.24 516.677 122.024 515.861 121.592C515.061 121.16 514.429 120.568 513.965 119.816C513.517 119.064 513.293 118.2 513.293 117.224V109.88C513.309 109.576 513.405 109.336 513.581 109.16C513.773 108.968 514.021 108.872 514.325 108.872C514.629 108.872 514.869 108.968 515.045 109.16C515.237 109.336 515.333 109.584 515.333 109.904V113.072H518.789C519.765 113.072 520.629 113.256 521.381 113.624C522.133 113.976 522.717 114.488 523.133 115.16C523.565 115.816 523.781 116.616 523.781 117.56C523.781 118.52 523.565 119.352 523.133 120.056C522.701 120.76 522.093 121.304 521.309 121.688C520.541 122.056 519.653 122.24 518.645 122.24ZM518.645 120.368C519.573 120.368 520.333 120.136 520.925 119.672C521.517 119.192 521.813 118.488 521.813 117.56C521.813 116.632 521.525 115.944 520.949 115.496C520.389 115.048 519.669 114.824 518.789 114.824H515.333V117.2C515.333 118.128 515.645 118.888 516.269 119.48C516.893 120.072 517.685 120.368 518.645 120.368ZM526.877 122C526.589 122 526.349 121.912 526.157 121.736C525.965 121.544 525.869 121.288 525.869 120.968V109.904C525.869 109.584 525.965 109.336 526.157 109.16C526.349 108.968 526.589 108.872 526.877 108.872C527.197 108.872 527.445 108.968 527.621 109.16C527.813 109.336 527.909 109.584 527.909 109.904V120.968C527.909 121.288 527.813 121.544 527.621 121.736C527.445 121.912 527.197 122 526.877 122ZM537.126 108.872C537.334 108.872 537.518 108.928 537.678 109.04C537.854 109.152 537.998 109.32 538.11 109.544L543.222 120.704C543.35 120.96 543.366 121.192 543.27 121.4C543.174 121.608 543.006 121.776 542.766 121.904C542.478 122.032 542.222 122.056 541.998 121.976C541.774 121.896 541.598 121.728 541.47 121.472L536.622 110.648H537.75L532.806 121.448C532.694 121.704 532.51 121.872 532.254 121.952C532.014 122.032 531.758 122.008 531.486 121.88C531.246 121.752 531.07 121.584 530.958 121.376C530.862 121.168 530.878 120.936 531.006 120.68L536.19 109.544C536.398 109.096 536.71 108.872 537.126 108.872ZM556.684 121.736C556.508 121.912 556.268 122 555.964 122C555.676 122 555.444 121.904 555.268 121.712L549.484 115.424L554.98 109.184C555.156 108.992 555.388 108.888 555.676 108.872C555.964 108.856 556.196 108.928 556.372 109.088C556.58 109.28 556.692 109.496 556.708 109.736C556.74 109.96 556.668 110.176 556.492 110.384L552.028 115.328L556.732 120.464C556.908 120.656 556.996 120.872 556.996 121.112C556.996 121.336 556.892 121.544 556.684 121.736ZM547.3 122C547.012 122 546.78 121.912 546.604 121.736C546.428 121.544 546.34 121.296 546.34 120.992V109.904C546.34 109.584 546.428 109.336 546.604 109.16C546.78 108.968 547.012 108.872 547.3 108.872C547.62 108.872 547.868 108.968 548.044 109.16C548.236 109.336 548.332 109.584 548.332 109.904V114.416H551.308V116.288H548.332V120.992C548.332 121.296 548.236 121.544 548.044 121.736C547.868 121.912 547.62 122 547.3 122ZM559.391 127.736C559.055 127.752 558.719 127.712 558.383 127.616C558.063 127.52 557.743 127.384 557.423 127.208C557.135 127.032 556.951 126.808 556.871 126.536C556.775 126.264 556.823 126.008 557.015 125.768C557.175 125.544 557.375 125.416 557.615 125.384C557.871 125.368 558.135 125.432 558.407 125.576C558.583 125.672 558.751 125.744 558.911 125.792C559.087 125.84 559.279 125.864 559.487 125.864C559.999 125.864 560.495 125.616 560.975 125.12C561.471 124.624 561.927 123.896 562.343 122.936L568.247 109.4C568.359 109.144 568.535 108.968 568.775 108.872C569.031 108.776 569.295 108.784 569.567 108.896C569.791 109.008 569.943 109.184 570.023 109.424C570.103 109.664 570.079 109.928 569.951 110.216L564.023 123.752C563.479 124.936 562.799 125.896 561.983 126.632C561.183 127.368 560.319 127.736 559.391 127.736ZM564.527 121.544C564.271 121.672 564.031 121.696 563.807 121.616C563.583 121.536 563.399 121.36 563.255 121.088L557.879 110.216C557.751 109.944 557.727 109.696 557.807 109.472C557.903 109.248 558.079 109.072 558.335 108.944C558.607 108.832 558.855 108.816 559.079 108.896C559.303 108.976 559.479 109.144 559.607 109.4L564.887 120.248C565.015 120.504 565.055 120.76 565.007 121.016C564.959 121.256 564.799 121.432 564.527 121.544ZM591.086 122C590.782 122 590.534 121.912 590.342 121.736C590.15 121.544 590.054 121.288 590.054 120.968V109.904C590.054 109.584 590.15 109.336 590.342 109.16C590.534 108.968 590.782 108.872 591.086 108.872C591.374 108.872 591.606 108.968 591.782 109.16C591.958 109.336 592.046 109.584 592.046 109.904V120.968C592.046 121.288 591.958 121.544 591.782 121.736C591.606 121.912 591.374 122 591.086 122ZM580.886 122C580.598 122 580.358 121.912 580.166 121.736C579.99 121.544 579.902 121.288 579.902 120.968V109.904C579.902 109.584 579.99 109.336 580.166 109.16C580.358 108.968 580.598 108.872 580.886 108.872C581.19 108.872 581.43 108.968 581.606 109.16C581.798 109.336 581.894 109.584 581.894 109.904V120.968C581.894 121.288 581.798 121.544 581.606 121.736C581.43 121.912 581.19 122 580.886 122ZM581.582 116.24V114.416H590.702V116.24H581.582ZM602.043 122.12C600.827 122.12 599.739 121.832 598.779 121.256C597.819 120.664 597.059 119.864 596.499 118.856C595.939 117.848 595.659 116.712 595.659 115.448C595.659 114.168 595.947 113.024 596.523 112.016C597.115 111.008 597.915 110.216 598.923 109.64C599.931 109.048 601.067 108.752 602.331 108.752C603.579 108.752 604.699 109.048 605.691 109.64C606.699 110.216 607.491 111.008 608.067 112.016C608.659 113.024 608.963 114.168 608.979 115.448L608.163 115.856C608.163 117.04 607.891 118.104 607.347 119.048C606.819 119.992 606.091 120.744 605.163 121.304C604.251 121.848 603.211 122.12 602.043 122.12ZM602.331 120.296C603.227 120.296 604.019 120.088 604.707 119.672C605.411 119.24 605.963 118.656 606.363 117.92C606.779 117.184 606.987 116.36 606.987 115.448C606.987 114.52 606.779 113.696 606.363 112.976C605.963 112.24 605.411 111.656 604.707 111.224C604.019 110.792 603.227 110.576 602.331 110.576C601.451 110.576 600.651 110.792 599.931 111.224C599.227 111.656 598.667 112.24 598.251 112.976C597.835 113.696 597.627 114.52 597.627 115.448C597.627 116.36 597.835 117.184 598.251 117.92C598.667 118.656 599.227 119.24 599.931 119.672C600.651 120.088 601.451 120.296 602.331 120.296ZM607.947 122C607.659 122 607.411 121.912 607.203 121.736C607.011 121.544 606.915 121.296 606.915 120.992V117.032L607.371 114.944L608.979 115.448V120.992C608.979 121.296 608.883 121.544 608.691 121.736C608.499 121.912 608.251 122 607.947 122ZM625.366 122.168C624.422 122.168 623.59 121.952 622.87 121.52C622.15 121.088 621.59 120.472 621.19 119.672C620.79 118.856 620.59 117.896 620.59 116.792V109.904C620.59 109.584 620.678 109.336 620.854 109.16C621.046 108.968 621.294 108.872 621.598 108.872C621.902 108.872 622.142 108.968 622.318 109.16C622.51 109.336 622.606 109.584 622.606 109.904V116.792C622.606 117.528 622.734 118.152 622.99 118.664C623.246 119.176 623.598 119.568 624.046 119.84C624.51 120.112 625.038 120.248 625.63 120.248C626.59 120.248 627.374 119.936 627.982 119.312C628.59 118.688 628.894 117.888 628.894 116.912L629.878 116.936C629.862 117.944 629.654 118.848 629.254 119.648C628.87 120.432 628.342 121.048 627.67 121.496C626.998 121.944 626.23 122.168 625.366 122.168ZM617.11 122.168C616.166 122.168 615.334 121.952 614.614 121.52C613.894 121.088 613.334 120.472 612.934 119.672C612.534 118.856 612.334 117.896 612.334 116.792V109.904C612.334 109.584 612.422 109.336 612.598 109.16C612.79 108.968 613.038 108.872 613.342 108.872C613.646 108.872 613.886 108.968 614.062 109.16C614.254 109.336 614.35 109.584 614.35 109.904V116.792C614.35 117.528 614.478 118.152 614.734 118.664C614.99 119.176 615.342 119.568 615.79 119.84C616.254 120.112 616.782 120.248 617.374 120.248C618.318 120.248 619.086 119.936 619.678 119.312C620.286 118.672 620.59 117.84 620.59 116.816H621.574C621.574 117.872 621.382 118.8 620.998 119.6C620.614 120.4 620.086 121.032 619.414 121.496C618.742 121.944 617.974 122.168 617.11 122.168ZM629.902 122C629.598 122 629.35 121.912 629.158 121.736C628.982 121.544 628.894 121.288 628.894 120.968V109.904C628.894 109.584 628.982 109.336 629.158 109.16C629.35 108.968 629.598 108.872 629.902 108.872C630.19 108.872 630.43 108.968 630.622 109.16C630.814 109.336 630.91 109.584 630.91 109.904V120.968C630.91 121.288 630.814 121.544 630.622 121.736C630.43 121.912 630.19 122 629.902 122ZM640.902 122.144C639.766 122.144 638.75 121.912 637.854 121.448C636.974 120.968 636.278 120.272 635.766 119.36C635.254 118.448 634.998 117.328 634.998 116V109.88C634.998 109.592 635.094 109.352 635.286 109.16C635.478 108.968 635.718 108.872 636.006 108.872C636.294 108.872 636.534 108.968 636.726 109.16C636.918 109.352 637.014 109.592 637.014 109.88V116C637.014 116.976 637.198 117.776 637.566 118.4C637.934 119.008 638.43 119.472 639.054 119.792C639.678 120.096 640.382 120.248 641.166 120.248C641.918 120.248 642.598 120.104 643.206 119.816C643.814 119.512 644.294 119.112 644.646 118.616C644.998 118.104 645.174 117.52 645.174 116.864H646.542C646.51 117.872 646.246 118.776 645.75 119.576C645.254 120.36 644.582 120.984 643.734 121.448C642.886 121.912 641.942 122.144 640.902 122.144ZM646.182 122C645.878 122 645.63 121.912 645.438 121.736C645.262 121.544 645.174 121.288 645.174 120.968V109.88C645.174 109.576 645.262 109.336 645.438 109.16C645.63 108.968 645.878 108.872 646.182 108.872C646.486 108.872 646.734 108.968 646.926 109.16C647.118 109.336 647.214 109.576 647.214 109.88V120.968C647.214 121.288 647.118 121.544 646.926 121.736C646.734 121.912 646.486 122 646.182 122ZM659.993 122C659.801 122 659.641 121.976 659.513 121.928C659.385 121.864 659.257 121.752 659.129 121.592L654.977 116.384L654.209 115.688L650.033 110.48C649.841 110.256 649.745 110.024 649.745 109.784C649.745 109.544 649.825 109.336 649.985 109.16C650.145 108.968 650.369 108.872 650.657 108.872C650.961 108.872 651.217 108.984 651.425 109.208L655.481 114.272L656.105 114.824L660.593 120.44C660.817 120.696 660.913 120.952 660.881 121.208C660.865 121.448 660.761 121.64 660.569 121.784C660.393 121.928 660.201 122 659.993 122ZM650.585 122C650.313 122 650.089 121.912 649.913 121.736C649.753 121.56 649.673 121.352 649.673 121.112C649.673 120.872 649.769 120.632 649.961 120.392L654.257 115.016L655.385 116.528L651.305 121.688C651.129 121.896 650.889 122 650.585 122ZM656.297 115.784L654.977 114.512L659.033 109.304C659.145 109.144 659.273 109.032 659.417 108.968C659.561 108.904 659.705 108.872 659.849 108.872C660.153 108.872 660.377 108.968 660.521 109.16C660.681 109.336 660.753 109.552 660.737 109.808C660.737 110.064 660.649 110.304 660.473 110.528L656.297 115.784ZM682.235 122C681.931 122 681.683 121.912 681.491 121.736C681.299 121.544 681.203 121.288 681.203 120.968V109.904C681.203 109.584 681.299 109.336 681.491 109.16C681.683 108.968 681.931 108.872 682.235 108.872C682.523 108.872 682.755 108.968 682.931 109.16C683.107 109.336 683.195 109.584 683.195 109.904V120.968C683.195 121.288 683.107 121.544 682.931 121.736C682.755 121.912 682.523 122 682.235 122ZM672.035 122C671.747 122 671.507 121.912 671.315 121.736C671.139 121.544 671.051 121.288 671.051 120.968V109.904C671.051 109.584 671.139 109.336 671.315 109.16C671.507 108.968 671.747 108.872 672.035 108.872C672.339 108.872 672.579 108.968 672.755 109.16C672.947 109.336 673.043 109.584 673.043 109.904V120.968C673.043 121.288 672.947 121.544 672.755 121.736C672.579 121.912 672.339 122 672.035 122ZM672.731 116.24V114.416H681.851V116.24H672.731ZM693.48 122.12C692.184 122.12 691.032 121.832 690.024 121.256C689.032 120.68 688.248 119.888 687.672 118.88C687.096 117.872 686.808 116.728 686.808 115.448C686.808 114.152 687.096 113 687.672 111.992C688.248 110.984 689.032 110.192 690.024 109.616C691.032 109.04 692.184 108.752 693.48 108.752C694.76 108.752 695.896 109.04 696.888 109.616C697.88 110.192 698.664 110.984 699.24 111.992C699.816 113 700.112 114.152 700.128 115.448C700.128 116.728 699.84 117.872 699.264 118.88C698.688 119.888 697.896 120.68 696.888 121.256C695.896 121.832 694.76 122.12 693.48 122.12ZM693.48 120.296C694.376 120.296 695.176 120.088 695.88 119.672C696.584 119.24 697.136 118.664 697.536 117.944C697.936 117.208 698.136 116.376 698.136 115.448C698.136 114.52 697.936 113.688 697.536 112.952C697.136 112.216 696.584 111.64 695.88 111.224C695.176 110.792 694.376 110.576 693.48 110.576C692.584 110.576 691.776 110.792 691.056 111.224C690.352 111.64 689.792 112.216 689.376 112.952C688.976 113.688 688.776 114.52 688.776 115.448C688.776 116.376 688.976 117.208 689.376 117.944C689.792 118.664 690.352 119.24 691.056 119.672C691.776 120.088 692.584 120.296 693.48 120.296ZM704.755 122C704.435 122 704.179 121.912 703.987 121.736C703.811 121.544 703.723 121.288 703.723 120.968V109.88C703.739 109.576 703.835 109.336 704.011 109.16C704.203 108.968 704.451 108.872 704.755 108.872C705.059 108.872 705.299 108.968 705.475 109.16C705.667 109.336 705.763 109.584 705.763 109.904V114.32H710.683V114.704C711.531 114.704 712.283 114.856 712.939 115.16C713.611 115.464 714.131 115.888 714.499 116.432C714.867 116.96 715.051 117.568 715.051 118.256C715.051 118.992 714.867 119.64 714.499 120.2C714.131 120.76 713.611 121.2 712.939 121.52C712.283 121.84 711.531 122 710.683 122H704.755ZM705.763 120.128H710.683C711.387 120.128 711.955 119.952 712.387 119.6C712.835 119.248 713.059 118.752 713.059 118.112C713.059 117.456 712.835 116.952 712.387 116.6C711.955 116.232 711.387 116.048 710.683 116.048H705.763V120.128ZM708.475 115.448V114.32H710.803C711.315 114.32 711.731 114.144 712.051 113.792C712.387 113.44 712.555 112.992 712.555 112.448C712.555 111.968 712.371 111.56 712.003 111.224C711.651 110.888 711.211 110.72 710.683 110.72H704.779V108.872H710.683C711.419 108.872 712.067 109.024 712.627 109.328C713.203 109.616 713.659 110.016 713.995 110.528C714.331 111.04 714.499 111.632 714.499 112.304C714.499 113.312 714.147 114.088 713.443 114.632C712.755 115.176 711.875 115.448 710.803 115.448H708.475ZM724.113 122.12C722.817 122.12 721.665 121.832 720.657 121.256C719.665 120.68 718.881 119.888 718.305 118.88C717.729 117.872 717.441 116.728 717.441 115.448C717.441 114.152 717.729 113 718.305 111.992C718.881 110.984 719.665 110.192 720.657 109.616C721.665 109.04 722.817 108.752 724.113 108.752C725.393 108.752 726.529 109.04 727.521 109.616C728.513 110.192 729.297 110.984 729.873 111.992C730.449 113 730.745 114.152 730.761 115.448C730.761 116.728 730.473 117.872 729.897 118.88C729.321 119.888 728.529 120.68 727.521 121.256C726.529 121.832 725.393 122.12 724.113 122.12ZM724.113 120.296C725.009 120.296 725.809 120.088 726.513 119.672C727.217 119.24 727.769 118.664 728.169 117.944C728.569 117.208 728.769 116.376 728.769 115.448C728.769 114.52 728.569 113.688 728.169 112.952C727.769 112.216 727.217 111.64 726.513 111.224C725.809 110.792 725.009 110.576 724.113 110.576C723.217 110.576 722.409 110.792 721.689 111.224C720.985 111.64 720.425 112.216 720.009 112.952C719.609 113.688 719.409 114.52 719.409 115.448C719.409 116.376 719.609 117.208 720.009 117.944C720.425 118.664 720.985 119.24 721.689 119.672C722.409 120.088 723.217 120.296 724.113 120.296ZM740.235 122.12C738.971 122.12 737.843 121.832 736.851 121.256C735.859 120.664 735.075 119.864 734.499 118.856C733.939 117.848 733.659 116.712 733.659 115.448C733.659 114.168 733.931 113.024 734.475 112.016C735.035 111.008 735.787 110.216 736.731 109.64C737.691 109.048 738.795 108.752 740.043 108.752C741.003 108.752 741.891 108.944 742.707 109.328C743.523 109.696 744.243 110.256 744.867 111.008C745.059 111.232 745.123 111.464 745.059 111.704C745.011 111.928 744.867 112.128 744.627 112.304C744.435 112.432 744.219 112.48 743.979 112.448C743.755 112.4 743.547 112.272 743.355 112.064C742.475 111.072 741.371 110.576 740.043 110.576C739.163 110.576 738.387 110.784 737.715 111.2C737.059 111.616 736.547 112.192 736.179 112.928C735.811 113.648 735.627 114.488 735.627 115.448C735.627 116.376 735.819 117.208 736.203 117.944C736.603 118.664 737.147 119.24 737.835 119.672C738.539 120.088 739.339 120.296 740.235 120.296C740.843 120.296 741.387 120.216 741.867 120.056C742.363 119.896 742.803 119.648 743.187 119.312C743.411 119.136 743.635 119.04 743.859 119.024C744.083 119.008 744.291 119.072 744.483 119.216C744.691 119.408 744.811 119.624 744.843 119.864C744.875 120.104 744.795 120.32 744.603 120.512C743.435 121.584 741.979 122.12 740.235 122.12ZM766.268 122C765.964 122 765.716 121.912 765.524 121.736C765.332 121.544 765.236 121.296 765.236 120.992V114.104C765.236 113 764.956 112.144 764.396 111.536C763.836 110.928 763.108 110.624 762.212 110.624C761.268 110.624 760.492 110.944 759.884 111.584C759.292 112.224 758.996 113.064 758.996 114.104H757.244C757.26 113.032 757.492 112.096 757.94 111.296C758.388 110.48 759.004 109.848 759.788 109.4C760.588 108.952 761.492 108.728 762.5 108.728C763.428 108.728 764.252 108.944 764.972 109.376C765.692 109.808 766.252 110.432 766.652 111.248C767.068 112.048 767.276 113 767.276 114.104V120.992C767.276 121.296 767.18 121.544 766.988 121.736C766.796 121.912 766.556 122 766.268 122ZM749.708 122C749.388 122 749.132 121.912 748.94 121.736C748.764 121.544 748.676 121.296 748.676 120.992V109.904C748.676 109.6 748.764 109.352 748.94 109.16C749.132 108.968 749.388 108.872 749.708 108.872C750.012 108.872 750.252 108.968 750.428 109.16C750.62 109.352 750.716 109.6 750.716 109.904V120.992C750.716 121.296 750.62 121.544 750.428 121.736C750.252 121.912 750.012 122 749.708 122ZM757.988 122C757.7 122 757.46 121.912 757.268 121.736C757.076 121.544 756.98 121.296 756.98 120.992V114.104C756.98 113 756.692 112.144 756.116 111.536C755.556 110.928 754.836 110.624 753.956 110.624C753.012 110.624 752.236 110.936 751.628 111.56C751.02 112.184 750.716 113 750.716 114.008H749.324C749.356 112.968 749.58 112.056 749.996 111.272C750.412 110.472 750.988 109.848 751.724 109.4C752.46 108.952 753.3 108.728 754.244 108.728C755.172 108.728 755.996 108.944 756.716 109.376C757.436 109.808 757.996 110.432 758.396 111.248C758.796 112.048 758.996 113 758.996 114.104V120.992C758.996 121.296 758.9 121.544 758.708 121.736C758.532 121.912 758.292 122 757.988 122ZM777.364 122.12C776.052 122.12 774.892 121.84 773.884 121.28C772.876 120.704 772.084 119.912 771.508 118.904C770.932 117.896 770.644 116.744 770.644 115.448C770.644 114.136 770.916 112.984 771.46 111.992C772.004 110.984 772.748 110.192 773.692 109.616C774.652 109.04 775.756 108.752 777.004 108.752C778.22 108.752 779.276 109.032 780.172 109.592C781.084 110.136 781.78 110.896 782.26 111.872C782.756 112.848 783.004 113.96 783.004 115.208C783.004 115.48 782.916 115.704 782.74 115.88C782.564 116.04 782.34 116.12 782.068 116.12H772.036V114.464H782.188L781.156 115.184C781.172 114.304 781.012 113.512 780.676 112.808C780.34 112.104 779.86 111.552 779.236 111.152C778.612 110.752 777.868 110.552 777.004 110.552C776.092 110.552 775.292 110.76 774.604 111.176C773.932 111.592 773.412 112.176 773.044 112.928C772.692 113.664 772.516 114.504 772.516 115.448C772.516 116.392 772.724 117.232 773.14 117.968C773.556 118.704 774.124 119.28 774.844 119.696C775.58 120.112 776.42 120.32 777.364 120.32C777.908 120.32 778.46 120.224 779.02 120.032C779.596 119.84 780.052 119.6 780.388 119.312C780.58 119.168 780.796 119.096 781.036 119.096C781.292 119.08 781.5 119.144 781.66 119.288C781.9 119.496 782.02 119.72 782.02 119.96C782.036 120.2 781.932 120.408 781.708 120.584C781.18 121.032 780.508 121.4 779.692 121.688C778.876 121.976 778.1 122.12 777.364 122.12ZM791.793 122.144C790.657 122.144 789.641 121.912 788.745 121.448C787.865 120.968 787.169 120.272 786.657 119.36C786.145 118.448 785.889 117.328 785.889 116V109.88C785.889 109.592 785.985 109.352 786.177 109.16C786.369 108.968 786.609 108.872 786.897 108.872C787.185 108.872 787.425 108.968 787.617 109.16C787.809 109.352 787.905 109.592 787.905 109.88V116C787.905 116.976 788.089 117.776 788.457 118.4C788.825 119.008 789.321 119.472 789.945 119.792C790.569 120.096 791.273 120.248 792.057 120.248C792.809 120.248 793.489 120.104 794.097 119.816C794.705 119.512 795.185 119.112 795.537 118.616C795.889 118.104 796.065 117.52 796.065 116.864H797.433C797.401 117.872 797.137 118.776 796.641 119.576C796.145 120.36 795.473 120.984 794.625 121.448C793.777 121.912 792.833 122.144 791.793 122.144ZM797.073 122C796.769 122 796.521 121.912 796.329 121.736C796.153 121.544 796.065 121.288 796.065 120.968V109.88C796.065 109.576 796.153 109.336 796.329 109.16C796.521 108.968 796.769 108.872 797.073 108.872C797.377 108.872 797.625 108.968 797.817 109.16C798.009 109.336 798.105 109.576 798.105 109.88V120.968C798.105 121.288 798.009 121.544 797.817 121.736C797.625 121.912 797.377 122 797.073 122ZM792.129 107.168C791.329 107.168 790.609 107.032 789.969 106.76C789.345 106.488 788.849 106.12 788.481 105.656C788.113 105.176 787.929 104.648 787.929 104.072C787.929 103.784 788.017 103.544 788.193 103.352C788.385 103.16 788.609 103.064 788.865 103.064C789.137 103.064 789.361 103.16 789.537 103.352C789.713 103.544 789.801 103.8 789.801 104.12C789.801 104.552 790.025 104.904 790.473 105.176C790.921 105.448 791.473 105.584 792.129 105.584C792.801 105.584 793.353 105.448 793.785 105.176C794.233 104.904 794.457 104.552 794.457 104.12C794.457 103.8 794.545 103.544 794.721 103.352C794.913 103.16 795.137 103.064 795.393 103.064C795.665 103.064 795.889 103.16 796.065 103.352C796.241 103.544 796.329 103.784 796.329 104.072C796.329 104.648 796.145 105.176 795.777 105.656C795.409 106.12 794.905 106.488 794.265 106.76C793.641 107.032 792.929 107.168 792.129 107.168Z" fill="white"/>
<path d="M218.11 52.42C215.842 52.42 213.714 52 211.726 51.16C209.766 50.292 208.044 49.102 206.56 47.59C205.104 46.05 203.956 44.258 203.116 42.214C202.304 40.17 201.898 37.958 201.898 35.578C201.898 33.226 202.304 31.042 203.116 29.026C203.956 26.982 205.104 25.204 206.56 23.692C208.044 22.152 209.766 20.948 211.726 20.08C213.686 19.212 215.814 18.778 218.11 18.778C220.266 18.778 222.114 19.058 223.654 19.618C225.222 20.178 226.79 21.102 228.358 22.39C228.582 22.558 228.75 22.74 228.862 22.936C229.002 23.104 229.086 23.286 229.114 23.482C229.17 23.65 229.198 23.86 229.198 24.112C229.198 24.644 229.002 25.092 228.61 25.456C228.246 25.792 227.798 25.988 227.266 26.044C226.734 26.072 226.216 25.89 225.712 25.498C224.676 24.602 223.598 23.916 222.478 23.44C221.386 22.964 219.93 22.726 218.11 22.726C216.458 22.726 214.904 23.062 213.448 23.734C211.992 24.406 210.704 25.33 209.584 26.506C208.492 27.682 207.638 29.054 207.022 30.622C206.406 32.162 206.098 33.814 206.098 35.578C206.098 37.37 206.406 39.05 207.022 40.618C207.638 42.158 208.492 43.516 209.584 44.692C210.704 45.868 211.992 46.792 213.448 47.464C214.904 48.108 216.458 48.43 218.11 48.43C219.538 48.43 220.882 48.192 222.142 47.716C223.43 47.212 224.662 46.526 225.838 45.658C226.342 45.294 226.832 45.14 227.308 45.196C227.812 45.224 228.232 45.42 228.568 45.784C228.904 46.12 229.072 46.596 229.072 47.212C229.072 47.492 229.016 47.772 228.904 48.052C228.792 48.304 228.624 48.542 228.4 48.766C226.888 49.97 225.264 50.88 223.528 51.496C221.82 52.112 220.014 52.42 218.11 52.42ZM254.286 51.496C253.922 51.832 253.404 52 252.732 52C252.088 51.972 251.584 51.776 251.22 51.412L241.014 40.45L250.632 29.698C250.996 29.306 251.5 29.082 252.144 29.026C252.816 28.97 253.334 29.11 253.698 29.446C254.118 29.838 254.356 30.286 254.412 30.79C254.468 31.266 254.314 31.7 253.95 32.092L246.348 40.24L254.412 48.892C254.776 49.256 254.958 49.69 254.958 50.194C254.958 50.67 254.734 51.104 254.286 51.496ZM237.654 52.042C237.038 52.042 236.548 51.846 236.184 51.454C235.82 51.034 235.638 50.516 235.638 49.9V31.168C235.638 30.524 235.82 30.006 236.184 29.614C236.548 29.222 237.038 29.026 237.654 29.026C238.298 29.026 238.816 29.222 239.208 29.614C239.628 30.006 239.838 30.524 239.838 31.168V38.182H245.214V42.13H239.838V49.9C239.838 50.516 239.628 51.034 239.208 51.454C238.816 51.846 238.298 52.042 237.654 52.042ZM269.867 52.21C267.935 52.21 266.199 51.804 264.659 50.992C263.147 50.152 261.943 48.934 261.047 47.338C260.179 45.742 259.745 43.782 259.745 41.458V31.126C259.745 30.51 259.941 30.006 260.333 29.614C260.753 29.194 261.271 28.984 261.887 28.984C262.503 28.984 263.007 29.194 263.399 29.614C263.819 30.006 264.029 30.51 264.029 31.126V41.458C264.029 43.026 264.323 44.328 264.911 45.364C265.499 46.372 266.297 47.128 267.305 47.632C268.313 48.108 269.447 48.346 270.707 48.346C271.911 48.346 272.975 48.108 273.899 47.632C274.851 47.156 275.607 46.512 276.167 45.7C276.727 44.888 277.007 43.978 277.007 42.97H279.653C279.653 44.706 279.219 46.274 278.351 47.674C277.511 49.074 276.349 50.18 274.865 50.992C273.409 51.804 271.743 52.21 269.867 52.21ZM279.149 52C278.533 52 278.015 51.804 277.595 51.412C277.203 50.992 277.007 50.474 277.007 49.858V31.126C277.007 30.482 277.203 29.964 277.595 29.572C278.015 29.18 278.533 28.984 279.149 28.984C279.793 28.984 280.311 29.18 280.703 29.572C281.095 29.964 281.291 30.482 281.291 31.126V49.858C281.291 50.474 281.095 50.992 280.703 51.412C280.311 51.804 279.793 52 279.149 52ZM298.412 52.168C296.312 52.168 294.45 51.678 292.826 50.698C291.23 49.69 289.97 48.318 289.046 46.582C288.122 44.818 287.66 42.802 287.66 40.534C287.66 38.238 288.15 36.222 289.13 34.486C290.138 32.722 291.51 31.35 293.246 30.37C294.982 29.362 296.984 28.858 299.252 28.858C301.492 28.858 303.48 29.362 305.216 30.37C306.952 31.35 308.31 32.722 309.29 34.486C310.298 36.222 310.802 38.238 310.802 40.534H308.324C308.324 42.802 307.89 44.818 307.022 46.582C306.182 48.318 305.02 49.69 303.536 50.698C302.052 51.678 300.344 52.168 298.412 52.168ZM299.168 61.534C297.18 61.534 295.318 61.142 293.582 60.358C291.846 59.574 290.376 58.426 289.172 56.914C288.808 56.438 288.668 55.948 288.752 55.444C288.864 54.94 289.144 54.534 289.592 54.226C290.096 53.89 290.614 53.778 291.146 53.89C291.706 54.002 292.154 54.282 292.49 54.73C293.246 55.682 294.198 56.424 295.346 56.956C296.494 57.488 297.796 57.754 299.252 57.754C300.596 57.754 301.828 57.432 302.948 56.788C304.096 56.144 305.006 55.192 305.678 53.932C306.35 52.672 306.686 51.132 306.686 49.312V43.348L308.072 39.652L310.802 40.534V49.606C310.802 51.818 310.312 53.82 309.332 55.612C308.352 57.432 306.98 58.874 305.216 59.938C303.48 61.002 301.464 61.534 299.168 61.534ZM299.252 48.388C300.708 48.388 301.996 48.052 303.116 47.38C304.236 46.708 305.104 45.784 305.72 44.608C306.364 43.432 306.686 42.074 306.686 40.534C306.686 38.994 306.364 37.636 305.72 36.46C305.104 35.256 304.236 34.318 303.116 33.646C301.996 32.974 300.708 32.638 299.252 32.638C297.796 32.638 296.508 32.974 295.388 33.646C294.268 34.318 293.386 35.256 292.742 36.46C292.098 37.636 291.776 38.994 291.776 40.534C291.776 42.074 292.098 43.432 292.742 44.608C293.386 45.784 294.268 46.708 295.388 47.38C296.508 48.052 297.796 48.388 299.252 48.388ZM335.825 51.496C335.461 51.832 334.943 52 334.271 52C333.627 51.972 333.123 51.776 332.759 51.412L322.553 40.45L332.171 29.698C332.535 29.306 333.039 29.082 333.683 29.026C334.355 28.97 334.873 29.11 335.237 29.446C335.657 29.838 335.895 30.286 335.951 30.79C336.007 31.266 335.853 31.7 335.489 32.092L327.887 40.24L335.951 48.892C336.315 49.256 336.497 49.69 336.497 50.194C336.497 50.67 336.273 51.104 335.825 51.496ZM319.193 52.042C318.577 52.042 318.087 51.846 317.723 51.454C317.359 51.034 317.177 50.516 317.177 49.9V31.168C317.177 30.524 317.359 30.006 317.723 29.614C318.087 29.222 318.577 29.026 319.193 29.026C319.837 29.026 320.355 29.222 320.747 29.614C321.167 30.006 321.377 30.524 321.377 31.168V38.182H326.753V42.13H321.377V49.9C321.377 50.516 321.167 51.034 320.747 51.454C320.355 51.846 319.837 52.042 319.193 52.042ZM349.23 52.168C347.186 52.168 345.352 51.664 343.728 50.656C342.104 49.62 340.816 48.234 339.864 46.498C338.94 44.734 338.478 42.746 338.478 40.534C338.478 38.322 338.982 36.334 339.99 34.57C341.026 32.806 342.412 31.42 344.148 30.412C345.912 29.376 347.886 28.858 350.07 28.858C352.254 28.858 354.214 29.376 355.95 30.412C357.686 31.42 359.058 32.806 360.066 34.57C361.102 36.334 361.62 38.322 361.62 40.534H359.982C359.982 42.746 359.506 44.734 358.554 46.498C357.63 48.234 356.356 49.62 354.732 50.656C353.108 51.664 351.274 52.168 349.23 52.168ZM350.07 48.388C351.498 48.388 352.772 48.052 353.892 47.38C355.012 46.68 355.894 45.742 356.538 44.566C357.182 43.362 357.504 42.018 357.504 40.534C357.504 39.022 357.182 37.678 356.538 36.502C355.894 35.298 355.012 34.36 353.892 33.688C352.772 32.988 351.498 32.638 350.07 32.638C348.67 32.638 347.396 32.988 346.248 33.688C345.128 34.36 344.232 35.298 343.56 36.502C342.916 37.678 342.594 39.022 342.594 40.534C342.594 42.018 342.916 43.362 343.56 44.566C344.232 45.742 345.128 46.68 346.248 47.38C347.396 48.052 348.67 48.388 350.07 48.388ZM359.478 52.042C358.862 52.042 358.344 51.846 357.924 51.454C357.532 51.034 357.336 50.516 357.336 49.9V43.474L358.134 39.022L361.62 40.534V49.9C361.62 50.516 361.41 51.034 360.99 51.454C360.598 51.846 360.094 52.042 359.478 52.042ZM380.175 42.634C379.559 42.634 379.041 42.438 378.621 42.046C378.229 41.654 378.033 41.15 378.033 40.534C378.033 39.89 378.229 39.372 378.621 38.98C379.041 38.588 379.559 38.392 380.175 38.392H389.541C390.157 38.392 390.661 38.588 391.053 38.98C391.445 39.372 391.641 39.89 391.641 40.534C391.641 41.15 391.445 41.654 391.053 42.046C390.661 42.438 390.157 42.634 389.541 42.634H380.175ZM403.049 52C402.489 52 401.999 51.79 401.579 51.37C401.159 50.95 400.949 50.446 400.949 49.858V24.238L397.883 25.54C397.407 25.736 396.959 25.834 396.539 25.834C395.923 25.834 395.405 25.638 394.985 25.246C394.593 24.854 394.397 24.35 394.397 23.734C394.397 23.286 394.509 22.88 394.733 22.516C394.957 22.152 395.307 21.886 395.783 21.718L402.335 19.366C402.475 19.31 402.615 19.268 402.755 19.24C402.895 19.212 403.021 19.198 403.133 19.198C403.777 19.198 404.281 19.408 404.645 19.828C405.037 20.22 405.233 20.738 405.233 21.382V49.858C405.233 50.446 405.023 50.95 404.603 51.37C404.183 51.79 403.665 52 403.049 52ZM421.553 52C419.425 52 417.605 51.356 416.093 50.068C414.609 48.752 413.475 46.876 412.691 44.44C411.907 41.976 411.515 39.022 411.515 35.578C411.515 32.134 411.907 29.194 412.691 26.758C413.475 24.294 414.609 22.418 416.093 21.13C417.605 19.814 419.425 19.156 421.553 19.156C423.681 19.156 425.487 19.828 426.971 21.172C428.483 22.488 429.631 24.378 430.415 26.842C431.199 29.278 431.591 32.19 431.591 35.578C431.591 38.966 431.199 41.892 430.415 44.356C429.631 46.792 428.483 48.682 426.971 50.026C425.487 51.342 423.681 52 421.553 52ZM421.553 47.632C422.841 47.632 423.905 47.114 424.745 46.078C425.585 45.014 426.215 43.572 426.635 41.752C427.055 39.932 427.265 37.874 427.265 35.578C427.265 33.282 427.055 31.224 426.635 29.404C426.215 27.584 425.585 26.142 424.745 25.078C423.905 24.014 422.841 23.482 421.553 23.482C420.265 23.482 419.201 24.014 418.361 25.078C417.521 26.114 416.891 27.542 416.471 29.362C416.051 31.182 415.841 33.254 415.841 35.578C415.841 37.902 416.051 39.974 416.471 41.794C416.891 43.614 417.521 45.042 418.361 46.078C419.229 47.114 420.293 47.632 421.553 47.632ZM440.71 52C440.094 52 439.576 51.79 439.156 51.37C438.764 50.95 438.568 50.446 438.568 49.858C438.568 49.27 438.736 48.794 439.072 48.43L461.164 20.038C461.416 19.758 461.682 19.548 461.962 19.408C462.27 19.268 462.578 19.198 462.886 19.198C463.502 19.198 464.02 19.408 464.44 19.828C464.86 20.248 465.07 20.752 465.07 21.34C465.07 21.816 464.916 22.25 464.608 22.642L442.306 51.328C441.886 51.776 441.354 52 440.71 52ZM443.23 35.956C441.69 35.956 440.276 35.578 438.988 34.822C437.728 34.038 436.72 33.016 435.964 31.756C435.208 30.496 434.83 29.11 434.83 27.598C434.83 26.086 435.208 24.7 435.964 23.44C436.72 22.152 437.728 21.13 438.988 20.374C440.276 19.59 441.69 19.198 443.23 19.198C444.77 19.198 446.17 19.59 447.43 20.374C448.69 21.13 449.698 22.152 450.454 23.44C451.21 24.7 451.588 26.086 451.588 27.598C451.588 29.11 451.21 30.496 450.454 31.756C449.698 33.016 448.69 34.038 447.43 34.822C446.17 35.578 444.77 35.956 443.23 35.956ZM443.23 31.672C443.986 31.672 444.672 31.49 445.288 31.126C445.904 30.762 446.394 30.272 446.758 29.656C447.122 29.012 447.304 28.326 447.304 27.598C447.304 26.842 447.108 26.156 446.716 25.54C446.352 24.924 445.862 24.434 445.246 24.07C444.63 23.678 443.958 23.482 443.23 23.482C442.474 23.482 441.774 23.678 441.13 24.07C440.514 24.434 440.024 24.924 439.66 25.54C439.296 26.156 439.114 26.842 439.114 27.598C439.114 28.326 439.296 29.012 439.66 29.656C440.024 30.272 440.514 30.762 441.13 31.126C441.774 31.49 442.474 31.672 443.23 31.672ZM460.282 52C458.77 52 457.37 51.622 456.082 50.866C454.822 50.11 453.814 49.102 453.058 47.842C452.302 46.554 451.924 45.154 451.924 43.642C451.924 42.102 452.302 40.702 453.058 39.442C453.814 38.182 454.822 37.174 456.082 36.418C457.342 35.662 458.742 35.284 460.282 35.284C461.794 35.284 463.18 35.662 464.44 36.418C465.728 37.146 466.75 38.14 467.506 39.4C468.29 40.66 468.682 42.074 468.682 43.642C468.682 45.182 468.29 46.582 467.506 47.842C466.75 49.102 465.742 50.11 464.482 50.866C463.222 51.622 461.822 52 460.282 52ZM460.282 47.716C461.038 47.716 461.724 47.534 462.34 47.17C462.984 46.806 463.488 46.316 463.852 45.7C464.216 45.056 464.398 44.37 464.398 43.642C464.398 42.886 464.216 42.2 463.852 41.584C463.488 40.968 462.984 40.478 462.34 40.114C461.724 39.75 461.038 39.568 460.282 39.568C459.554 39.568 458.868 39.75 458.224 40.114C457.608 40.478 457.118 40.968 456.754 41.584C456.39 42.2 456.208 42.886 456.208 43.642C456.208 44.37 456.39 45.056 456.754 45.7C457.118 46.316 457.608 46.806 458.224 47.17C458.868 47.534 459.554 47.716 460.282 47.716Z" fill="white"/>
<path d="M137.7 30.5L76.5 68.625L15.3 30.5V15.25L76.5 53.375L137.7 15.25V30.5ZM137.7 0H15.3C6.8085 0 0 6.78625 0 15.25V106.75C0 110.795 1.61196 114.673 4.48127 117.533C7.35057 120.393 11.2422 122 15.3 122H137.7C141.758 122 145.649 120.393 148.519 117.533C151.388 114.673 153 110.795 153 106.75V15.25C153 11.2054 151.388 7.32655 148.519 4.46662C145.649 1.60669 141.758 0 137.7 0Z" fill="#F9F9F9"/>
</svg>
